<svg width="111" height="128" viewBox="0 0 111 128" fill="none" xmlns="http://www.w3.org/2000/svg">
<path d="M16.9552 0.000784902C22.6065 0.000784902 28.256 -0.000981127 33.9073 0.000784902C33.9038 2.82643 33.9144 5.65208 33.9091 8.47772C36.7347 8.47419 39.5604 8.48125 42.386 8.47772C42.3825 11.3034 42.3896 14.129 42.386 16.9547C50.863 16.9547 59.3399 16.9547 67.8151 16.9547C67.8133 14.129 67.8204 11.3034 67.8168 8.47772C70.6425 8.48125 73.4681 8.47419 76.2938 8.47772C76.2902 5.65208 76.2973 2.82643 76.2938 0.000784902C81.9451 0.000784902 87.5946 -0.000981127 93.2459 0.000784902C93.2424 2.82643 93.2512 5.65208 93.2477 8.47772C96.0733 8.47419 98.8989 8.48125 101.725 8.47772C101.725 19.7803 101.725 31.0829 101.725 42.3872C98.8989 42.3855 96.0751 42.3855 93.2512 42.3837C93.2459 39.5598 93.2477 36.7359 93.2459 33.9121C90.4202 33.905 87.5964 33.9103 84.7742 33.9068C84.7672 31.0811 84.7725 28.2572 84.769 25.4316C64.9912 25.4316 45.2134 25.4298 25.4339 25.4316C25.4304 28.2572 25.4339 31.0811 25.4304 33.905C22.6047 33.9103 19.7826 33.9068 16.9587 33.9103C16.9517 36.7359 16.957 39.5598 16.9534 42.3855C14.1278 42.3855 11.3039 42.3855 8.47827 42.3855C8.47827 31.0829 8.47827 19.7821 8.47827 8.47949C11.3039 8.48125 14.1296 8.47242 16.9552 8.47772C16.9517 5.65208 16.9587 2.82643 16.9552 0.000784902Z" fill="#00CB00"/>
<path d="M0.00133978 42.3855C2.82699 42.3837 5.65263 42.3819 8.47828 42.3855C8.47828 48.0368 8.47828 53.6881 8.47828 59.3376C5.65263 59.3429 2.82699 59.3394 0.00133978 59.3376C-0.000426248 53.6881 -0.000426248 48.0368 0.00133978 42.3855Z" fill="#00CB00"/>
<path d="M101.725 42.3873C104.548 42.382 107.374 42.3837 110.202 42.3873C110.203 48.0368 110.202 53.6881 110.202 59.3394C107.374 59.3394 104.548 59.3411 101.725 59.3394C101.725 53.6881 101.725 48.0368 101.725 42.3873Z" fill="#00CB00"/>
<path d="M8.47825 59.3376C11.3039 59.3394 14.1295 59.3376 16.9552 59.3394C16.9534 62.165 16.9534 64.9889 16.957 67.8145C14.1313 67.8163 11.3039 67.8163 8.47825 67.8181C8.47649 64.9906 8.47649 62.165 8.47825 59.3376Z" fill="#00CB00"/>
<path d="M93.2494 59.3411C96.0733 59.3376 98.8989 59.3394 101.725 59.3394C101.725 70.6402 101.725 81.9428 101.725 93.2471C98.8972 93.2471 96.0733 93.2489 93.2494 93.2454C93.2459 90.4215 93.2459 87.5958 93.2477 84.772C87.5964 84.7684 81.9451 84.7702 76.2938 84.7684C76.292 79.1171 76.292 73.4658 76.2938 67.8163C79.1177 67.8181 81.9433 67.8163 84.769 67.8128C84.7725 70.6402 84.7672 73.4658 84.7742 76.2933C87.5981 76.2915 90.422 76.2915 93.2459 76.295C93.2494 70.6437 93.2441 64.9924 93.2494 59.3411Z" fill="#00CB00"/>
<path d="M0.00133422 67.8163C2.82698 67.8145 5.65263 67.8127 8.47827 67.818C8.48004 70.6419 8.47827 73.4676 8.47827 76.2932C5.65263 76.295 2.82698 76.2932 0.00133422 76.2914C-0.00043181 73.4658 0.00133422 70.6419 0.00133422 67.8163Z" fill="#00CB00"/>
<path d="M8.47829 76.2932C14.1296 76.2932 19.7809 76.2915 25.4322 76.295C25.4304 79.1189 25.4339 81.9428 25.4322 84.7684C22.6065 84.7702 19.7809 84.7684 16.9552 84.7737C16.9535 87.5976 16.957 90.4215 16.9535 93.2471C14.1278 93.2506 11.3039 93.2471 8.47829 93.2453C8.47653 87.594 8.47829 81.9445 8.47829 76.2932Z" fill="#00CB00"/>
<path d="M25.4322 67.8163C28.2578 67.8181 31.0834 67.8163 33.9091 67.8128C33.9073 70.6384 33.9073 73.4658 33.9109 76.2915C31.0852 76.2932 28.2578 76.2915 25.4322 76.295C25.4322 73.4676 25.4304 70.642 25.4322 67.8163Z" fill="#00CB00"/>
<path d="M16.9534 93.2471C19.7791 93.2453 22.6047 93.2453 25.4304 93.2489C25.4321 96.0727 25.4304 98.8966 25.4339 101.722C22.6065 101.726 19.7808 101.724 16.9552 101.722C16.9517 98.8966 16.9552 96.071 16.9534 93.2471Z" fill="#00CB00"/>
<path d="M84.7725 93.2489C87.5964 93.2453 90.422 93.2471 93.2494 93.2453C93.2477 96.071 93.2477 98.8966 93.2477 101.724C90.4202 101.726 87.5946 101.726 84.7707 101.722C84.769 98.8966 84.769 96.0728 84.7725 93.2489Z" fill="#00CB00"/>
<path d="M25.4339 101.722C28.2578 101.724 31.0834 101.724 33.9091 101.726C33.9091 107.375 33.9109 113.027 33.9091 118.678C31.0834 118.68 28.2578 118.678 25.4322 118.678C25.4322 113.025 25.4286 107.374 25.4339 101.722Z" fill="#00CB00"/>
<path d="M76.2955 101.726C79.1194 101.722 81.9451 101.724 84.7707 101.722C84.7742 104.548 84.7707 107.374 84.7689 110.201C81.9433 110.203 79.1176 110.201 76.2938 110.201C76.292 107.375 76.292 104.55 76.2955 101.726Z" fill="#00CB00"/>
<path d="M67.8186 110.201C70.6425 110.201 73.4681 110.199 76.2938 110.201C76.2973 113.027 76.2938 115.852 76.292 118.678C73.4664 118.68 70.6425 118.678 67.8169 118.678C67.8151 115.851 67.8133 113.027 67.8186 110.201Z" fill="#00CB00"/>
<path d="M42.386 101.724C50.8629 101.722 59.3381 101.722 67.8151 101.726C67.8168 104.55 67.8168 107.375 67.8186 110.201C62.1655 110.203 56.5142 110.199 50.8647 110.201C50.8665 113.027 50.8594 115.851 50.8629 118.678C48.0355 118.68 45.2117 118.678 42.386 118.678C42.3842 113.027 42.386 107.375 42.386 101.724Z" fill="#00CB00"/>
<path d="M33.9091 118.678C36.7348 118.676 39.5604 118.676 42.3861 118.678C42.3878 121.504 42.3861 124.327 42.3843 127.155C39.5586 127.157 36.7348 127.155 33.9091 127.155C33.9056 124.327 33.9073 121.504 33.9091 118.678Z" fill="#00CB00"/>
<path d="M67.8169 33.9085C70.6425 33.9068 73.4682 33.9085 76.2938 33.9085C76.2956 36.7342 76.2938 39.5598 76.2938 42.3855C73.4664 42.3873 70.6425 42.3855 67.8169 42.3855C67.8151 39.5598 67.8151 36.7342 67.8169 33.9085Z" fill="#00CB00"/>
<path d="M42.386 50.8624C50.8629 50.8624 59.3399 50.8624 67.8168 50.8624C67.8186 53.6881 67.8168 56.5137 67.8168 59.3393C59.3399 59.3393 50.8629 59.3393 42.386 59.3393C42.3842 56.5137 42.386 53.6881 42.386 50.8624Z" fill="#00CB00"/>
<path d="M33.9091 33.9085C36.7348 33.9068 39.5604 33.9085 42.386 33.9085C42.3878 36.7342 42.386 39.5598 42.386 42.3855C39.5604 42.3873 36.7348 42.3855 33.9091 42.3855C33.9073 39.5598 33.9091 36.7342 33.9091 33.9085Z" fill="#00CB00"/>
</svg>
