<svg width="128" height="128" viewBox="0 0 128 128" fill="none" xmlns="http://www.w3.org/2000/svg">
<path d="M52.9845 0.00331129C60.0464 -0.00110376 67.1105 -0.00110376 74.1746 0.00331129C74.1768 3.53314 74.1768 7.06518 74.1746 10.595C70.6403 10.595 67.1105 10.5994 63.5784 10.5972C63.5762 14.1293 63.5762 17.6613 63.5784 21.1933C70.6425 21.1956 77.7044 21.1956 84.7685 21.1911C84.7663 17.6613 84.7729 14.1293 84.7707 10.5972C95.3668 10.5972 105.961 10.595 116.557 10.5972C116.557 14.1293 116.561 17.6613 116.559 21.1911C120.091 21.1911 123.623 21.1956 127.155 21.1933C127.155 42.3856 127.157 63.5778 127.155 84.7679C123.621 84.7679 120.091 84.7723 116.559 84.7701C116.563 88.3021 116.555 91.8342 116.559 95.3662C113.027 95.3618 109.495 95.3684 105.965 95.3662C105.963 98.8982 105.961 102.43 105.963 105.962C98.8988 105.965 91.8348 105.958 84.7707 105.965C84.7685 109.494 84.7685 113.024 84.7707 116.556C88.3027 116.554 91.8348 116.561 95.3668 116.558C95.369 120.09 95.3668 123.623 95.3668 127.155C88.3027 127.155 81.2386 127.157 74.1768 127.152C74.1701 120.09 74.179 113.026 74.1723 105.965C67.1105 105.96 60.0464 105.96 52.9845 105.965C52.9779 113.026 52.9867 120.09 52.9801 127.152C45.9182 127.157 38.8542 127.157 31.7901 127.152C31.7879 123.62 31.7879 120.09 31.7901 116.561C35.3221 116.561 38.8542 116.554 42.3862 116.558C42.3884 113.024 42.3884 109.494 42.3862 105.962C35.3221 105.958 28.2602 105.967 21.1962 105.96C21.1962 102.428 21.1895 98.8982 21.194 95.3662C17.6619 95.3706 14.1299 95.3618 10.5978 95.3662C10.6 91.8342 10.5934 88.3021 10.5978 84.7723C7.06579 84.7701 3.53375 84.7679 0.00171354 84.7701C0.00171354 63.5778 -0.00049398 42.3856 0.00171354 21.1956C3.53375 21.1956 7.06579 21.1911 10.5956 21.1933C10.5956 17.6613 10.6 14.1293 10.5978 10.5972C21.194 10.5972 31.7901 10.595 42.384 10.5972C42.384 14.1293 42.3884 17.6613 42.3862 21.1933C45.9182 21.1956 49.4503 21.1956 52.9823 21.1933C52.9845 14.1293 52.9779 7.06518 52.9845 0.00331129ZM31.7901 31.7895C31.7923 35.3215 31.7879 38.8535 31.7879 42.3856C28.258 42.3834 24.726 42.3878 21.1962 42.3878C21.1917 56.5137 21.194 70.6419 21.194 84.7701C24.726 84.7679 28.258 84.7723 31.7901 84.7723C31.7879 88.3021 31.7923 91.832 31.7923 95.3662C52.9823 95.3684 74.1746 95.3662 95.3668 95.3662C95.3646 91.8342 95.369 88.3021 95.369 84.7701C98.8988 84.7723 102.429 84.7679 105.961 84.7679C105.965 70.6419 105.963 56.5137 105.963 42.3856C102.431 42.3878 98.8988 42.3834 95.3668 42.3834C95.369 38.8535 95.3624 35.3215 95.3646 31.7917C88.3005 31.7873 81.2386 31.7873 74.1768 31.7895C74.1723 35.3215 74.1701 38.8535 74.1746 42.3856C67.1105 42.3856 60.0464 42.3856 52.9823 42.3834C52.9845 38.8535 52.9845 35.3215 52.9801 31.7917C45.9182 31.7873 38.8542 31.7873 31.7901 31.7895Z" fill="#00CB00"/>
<path d="M42.3883 42.3878C45.9182 42.3834 49.4502 42.3878 52.9822 42.3834C52.98 49.4497 52.9867 56.5138 52.98 63.5778C49.4502 63.5778 45.9182 63.5756 42.3883 63.58C42.3839 56.516 42.3817 49.4519 42.3883 42.3878Z" fill="#00CB00"/>
<path d="M74.1745 42.3856C77.7066 42.3878 81.2364 42.3834 84.7707 42.3878C84.7729 49.4496 84.7729 56.5137 84.7707 63.5778C81.2386 63.5756 77.7066 63.5756 74.1767 63.58C74.1701 56.5159 74.1745 49.4496 74.1745 42.3856Z" fill="#00CB00"/>
<path d="M52.9822 74.1739C60.0463 74.1717 67.1104 74.1717 74.1745 74.1761C74.1767 77.706 74.1767 81.238 74.1745 84.7701C67.1104 84.7701 60.0463 84.7723 52.9822 84.7678C52.98 81.2358 52.98 77.706 52.9822 74.1739Z" fill="#00CB00"/>
<path d="M0.00165564 95.3684C3.5337 95.3617 7.06573 95.364 10.5978 95.3662C10.6 98.8982 10.6022 102.428 10.5956 105.962C7.06353 105.964 3.5337 105.962 0.00165564 105.962C-0.000551881 102.43 -0.000551881 98.8982 0.00165564 95.3684Z" fill="#00CB00"/>
<path d="M116.559 95.3662C120.091 95.364 123.621 95.3617 127.155 95.3684C127.157 98.8982 127.155 102.43 127.155 105.962C123.621 105.964 120.091 105.962 116.561 105.962C116.555 102.428 116.557 98.896 116.559 95.3662Z" fill="#00CB00"/>
</svg>
