<svg width="103" height="110" viewBox="0 0 103 110" fill="none" xmlns="http://www.w3.org/2000/svg">
<path d="M51.1077 0C53.5707 0 56.0337 0 58.4968 0C58.4968 2.46302 58.4968 4.92604 58.4968 7.38906C56.0337 7.38906 53.5707 7.38906 51.1077 7.38906C51.1077 4.92604 51.1077 2.46302 51.1077 0Z" fill="#00CB00"/>
<path d="M58.4968 7.38904C60.9598 7.38904 63.4228 7.38904 65.8858 7.38904C65.8858 9.85206 65.8858 12.3151 65.8858 14.7781C63.4228 14.7781 60.9598 14.7781 58.4968 14.7781C58.4968 12.3151 58.4968 9.85206 58.4968 7.38904Z" fill="#00CB00"/>
<path d="M51.1077 14.7781C53.5707 14.7781 56.0338 14.7781 58.4968 14.7781C58.4968 17.2411 58.4968 19.7041 58.4968 22.1671C63.3212 22.1671 68.1426 22.1671 72.967 22.1671C72.967 24.5286 72.967 26.8869 72.967 29.2483C58.3952 29.2483 43.8203 29.2483 29.2484 29.2483C29.2484 26.8869 29.2484 24.5286 29.2484 22.1671C36.5359 22.1671 43.8203 22.1671 51.1077 22.1671C51.1077 19.7041 51.1077 17.2411 51.1077 14.7781Z" fill="#00CB00"/>
<path d="M21.8594 29.2483C24.3224 29.2483 26.7854 29.2483 29.2484 29.2483C29.2484 31.7113 29.2484 34.1743 29.2484 36.6374C31.7114 36.6374 34.1745 36.6374 36.6375 36.6374C36.6375 39.1004 36.6375 41.5634 36.6375 44.0264C29.2484 44.0264 21.8594 44.0264 14.4703 44.0264C14.4703 41.5634 14.4703 39.1004 14.4703 36.6374C16.9333 36.6374 19.3963 36.6374 21.8594 36.6374C21.8594 34.1743 21.8594 31.7113 21.8594 29.2483Z" fill="#00CB00"/>
<path d="M72.967 29.2483C75.4301 29.2483 77.8931 29.2483 80.3561 29.2483C80.3561 31.7113 80.3561 34.1743 80.3561 36.6374C82.8191 36.6374 85.2821 36.6374 87.7452 36.6374C87.7452 39.1004 87.7452 41.5634 87.7452 44.0264C90.2082 44.0264 92.6712 44.0264 95.1342 44.0264C95.1342 53.7769 95.1342 63.5243 95.1342 73.2748C92.6712 73.2748 90.2082 73.2748 87.7452 73.2748C87.7452 68.3487 87.7452 63.4227 87.7452 58.4967C85.2821 58.4967 82.8191 58.4967 80.3561 58.4967C80.3561 56.1352 80.3561 53.7769 80.3561 51.4155C77.8931 51.4155 75.4301 51.4155 72.967 51.4155C72.967 44.0264 72.967 36.6374 72.967 29.2483Z" fill="#00CB00"/>
<path d="M7.38907 44.0265C9.75049 44.0265 12.1088 44.0265 14.4703 44.0265C14.4703 53.777 14.4703 63.5244 14.4703 73.2749C12.1088 73.2749 9.75049 73.2749 7.38907 73.2749C7.38907 63.5244 7.38907 53.777 7.38907 44.0265Z" fill="#00CB00"/>
<path d="M14.4703 73.2749C19.3963 73.2749 24.3224 73.2749 29.2484 73.2749C29.2484 78.0993 29.2484 82.9207 29.2484 87.7451C26.7854 87.7451 24.3224 87.7451 21.8594 87.7451C21.8594 85.3837 21.8594 83.0254 21.8594 80.664C19.3963 80.664 16.9333 80.664 14.4703 80.664C14.4703 78.2009 14.4703 75.7379 14.4703 73.2749Z" fill="#00CB00"/>
<path d="M29.2484 65.8857C38.9989 65.8857 48.7463 65.8857 58.4968 65.8857C58.4968 68.3488 58.4968 70.8118 58.4968 73.2748C48.7463 73.2748 38.9989 73.2748 29.2484 73.2748C29.2484 70.8118 29.2484 68.3488 29.2484 65.8857Z" fill="#00CB00"/>
<path d="M58.4968 73.2749C63.3212 73.2749 68.1426 73.2749 72.967 73.2749C72.967 75.7379 72.967 78.2009 72.967 80.664C75.43 80.664 77.8931 80.664 80.3561 80.664C80.3561 83.0254 80.3561 85.3837 80.3561 87.7451C77.8931 87.7451 75.43 87.7451 72.967 87.7451C72.967 90.2082 72.967 92.6712 72.967 95.1342C58.3952 95.1342 43.8203 95.1342 29.2484 95.1342C29.2484 92.6712 29.2484 90.2082 29.2484 87.7451C31.7114 87.7451 34.1745 87.7451 36.6375 87.7451C36.6375 85.3837 36.6375 83.0254 36.6375 80.664C41.4619 80.664 46.2833 80.664 51.1077 80.664C51.1077 83.0254 51.1077 85.3837 51.1077 87.7451C56.0338 87.7451 60.9598 87.7451 65.8858 87.7451C65.8858 85.3837 65.8858 83.0254 65.8858 80.664C63.4228 80.664 60.9598 80.664 58.4968 80.664C58.4968 78.2009 58.4968 75.7379 58.4968 73.2749Z" fill="#00CB00"/>
<path d="M80.3561 73.2749C82.8191 73.2749 85.2822 73.2749 87.7452 73.2749C87.7452 75.7379 87.7452 78.2009 87.7452 80.664C85.2822 80.664 82.8191 80.664 80.3561 80.664C80.3561 78.2009 80.3561 75.7379 80.3561 73.2749Z" fill="#00CB00"/>
<path d="M7.38907 80.6639C9.75049 80.6639 12.1088 80.6639 14.4703 80.6639C14.4703 83.0254 14.4703 85.3837 14.4703 87.7451C12.1088 87.7451 9.75049 87.7451 7.38907 87.7451C7.38907 85.3837 7.38907 83.0254 7.38907 80.6639Z" fill="#00CB00"/>
<path d="M87.7451 80.6639C90.2082 80.6639 92.6712 80.6639 95.1342 80.6639C95.1342 83.0254 95.1342 85.3837 95.1342 87.7451C92.6712 87.7451 90.2082 87.7451 87.7451 87.7451C87.7451 85.3837 87.7451 83.0254 87.7451 80.6639Z" fill="#00CB00"/>
<path d="M0 87.7451C2.46302 87.7451 4.92604 87.7451 7.38906 87.7451C7.38906 90.2081 7.38906 92.6712 7.38906 95.1342C4.92604 95.1342 2.46302 95.1342 0 95.1342C0 92.6712 0 90.2081 0 87.7451Z" fill="#00CB00"/>
<path d="M95.1342 87.7451C97.4956 87.7451 99.854 87.7451 102.215 87.7451C102.215 90.2081 102.215 92.6712 102.215 95.1342C99.854 95.1342 97.4956 95.1342 95.1342 95.1342C95.1342 92.6712 95.1342 90.2081 95.1342 87.7451Z" fill="#00CB00"/>
<path d="M7.38906 95.134C9.75048 95.134 12.1088 95.134 14.4702 95.134C14.4702 97.5971 14.4702 100.06 14.4702 102.523C16.9333 102.523 19.3963 102.523 21.8593 102.523C21.8593 104.986 21.8593 107.449 21.8593 109.912C14.5718 109.912 7.28746 109.912 0 109.912C0 107.449 0 104.986 0 102.523C2.46302 102.523 4.92604 102.523 7.38906 102.523C7.38906 100.06 7.38906 97.5971 7.38906 95.134Z" fill="#00CB00"/>
<path d="M87.7452 95.134C90.2082 95.134 92.6712 95.134 95.1342 95.134C95.1342 97.5971 95.1342 100.06 95.1342 102.523C97.4957 102.523 99.854 102.523 102.215 102.523C102.215 104.986 102.215 107.449 102.215 109.912C94.928 109.912 87.6436 109.912 80.3561 109.912C80.3561 107.449 80.3561 104.986 80.3561 102.523C82.8191 102.523 85.2822 102.523 87.7452 102.523C87.7452 100.06 87.7452 97.5971 87.7452 95.134Z" fill="#00CB00"/>
<path d="M21.8593 51.4155C24.3224 51.4155 26.7854 51.4155 29.2484 51.4155C29.2484 53.7769 29.2484 56.1353 29.2484 58.4967C26.7854 58.4967 24.3224 58.4967 21.8593 58.4967C21.8593 56.1353 21.8593 53.7769 21.8593 51.4155Z" fill="#00CB00"/>
<path d="M43.7187 36.6375C51.1077 36.6375 58.4968 36.6375 65.8858 36.6375C65.8858 39.1005 65.8858 41.5635 65.8858 44.0265C58.4968 44.0265 51.1077 44.0265 43.7187 44.0265C43.7187 41.5635 43.7187 39.1005 43.7187 36.6375Z" fill="#00CB00"/>
<path d="M51.1077 51.4155C53.5707 51.4155 56.0337 51.4155 58.4968 51.4155C58.4968 53.7769 58.4968 56.1353 58.4968 58.4967C56.0337 58.4967 53.5707 58.4967 51.1077 58.4967C51.1077 56.1353 51.1077 53.7769 51.1077 51.4155Z" fill="#00CB00"/>
</svg>
