<svg width="119" height="128" viewBox="0 0 119 128" fill="none" xmlns="http://www.w3.org/2000/svg">
<path d="M8.54019 0.00428532C14.2306 -0.000207738 19.9211 -0.000207738 25.6116 0.00428532C25.6116 2.84839 25.6116 5.6925 25.6116 8.53661C22.7652 8.53886 19.9211 8.5411 17.077 8.53886C17.0748 11.3852 17.0748 14.2293 17.0748 17.0734C14.2284 17.0757 11.3843 17.0779 8.53794 17.0757C8.54019 19.922 8.53794 22.7684 8.53794 25.6125C5.69159 25.6125 2.84748 25.6125 0.0033698 25.6125C-0.00112326 19.922 -0.00112326 14.2316 0.0033698 8.5411C2.84748 8.5411 5.69158 8.53886 8.53569 8.53661C8.53794 5.6925 8.53794 2.84839 8.54019 0.00428532Z" fill="#00CB00"/>
<path d="M25.6116 8.53656C48.2275 8.53881 70.841 8.53881 93.4569 8.53881C93.4569 11.3829 93.4569 14.2293 93.4569 17.0734C90.6105 17.0756 87.7664 17.0779 84.9223 17.0756C84.92 19.922 84.92 22.7683 84.9178 25.6147C82.0737 25.6102 79.2296 25.6102 76.3877 25.6124C76.3832 22.7661 76.3832 19.922 76.3787 17.0779C65.0742 17.0734 53.7696 17.0734 42.4651 17.0779C42.4606 19.922 42.4606 22.7661 42.4561 25.6124C39.612 25.6124 36.7702 25.6124 33.926 25.6124C33.9238 22.7683 33.9216 19.922 33.9216 17.0779C31.1516 17.0756 28.3816 17.0756 25.6116 17.0756C25.6116 14.2293 25.6116 11.3829 25.6116 8.53656Z" fill="#00CB00"/>
<path d="M93.4569 0.00425356C99.071 -0.00248603 104.687 -0.0002395 110.304 0.00425356C110.304 2.84836 110.306 5.69247 110.308 8.53658C113.152 8.53882 115.996 8.53882 118.84 8.54107C118.845 14.2315 118.845 19.922 118.84 25.6125C115.994 25.6125 113.15 25.6125 110.308 25.6125C110.304 22.7661 110.301 19.922 110.306 17.0779C107.46 17.0756 104.615 17.0756 101.771 17.0756C101.767 14.2293 101.767 11.3852 101.769 8.54107C98.9968 8.53882 96.2269 8.54107 93.4569 8.53882C93.4546 5.69247 93.4546 2.84836 93.4569 0.00425356Z" fill="#00CB00"/>
<path d="M17.0748 17.0734C19.9189 17.0756 22.7653 17.0734 25.6116 17.0756C25.6116 19.9197 25.6116 22.7661 25.6116 25.6124C22.7653 25.6124 19.9189 25.6124 17.0748 25.6124C17.0725 22.7661 17.0748 19.9197 17.0748 17.0734Z" fill="#00CB00"/>
<path d="M93.4569 17.0734C96.2268 17.0756 98.9991 17.0756 101.771 17.0756C101.769 19.9197 101.769 22.7661 101.769 25.6124C98.9991 25.6124 96.2268 25.6124 93.4569 25.6124C93.4569 22.7661 93.4546 19.9197 93.4569 17.0734Z" fill="#00CB00"/>
<path d="M8.538 25.6125C11.3821 25.6125 14.2285 25.6125 17.0748 25.6125C17.0771 28.3825 17.0771 31.1524 17.0771 33.9224C19.9212 33.9246 22.7653 33.9224 25.6116 33.9269C25.6094 36.771 25.6116 39.6151 25.6116 42.4615C19.9212 42.4615 14.2285 42.4615 8.538 42.4615C8.53575 36.8451 8.53575 31.2288 8.538 25.6125Z" fill="#00CB00"/>
<path d="M25.6116 25.6125C28.3839 25.6125 31.1538 25.6125 33.926 25.6125C33.9215 28.3825 33.9238 31.1524 33.9216 33.9224C31.1516 33.9224 28.3816 33.9224 25.6116 33.9269C25.6116 31.1547 25.6116 28.3825 25.6116 25.6125Z" fill="#00CB00"/>
<path d="M84.9178 25.6147C87.7641 25.6125 90.6105 25.6125 93.4568 25.6125C93.4546 28.3825 93.4569 31.1547 93.4546 33.9269C90.6105 33.9224 87.7664 33.9224 84.9223 33.9224C84.92 31.1524 84.92 28.3825 84.9178 25.6147Z" fill="#00CB00"/>
<path d="M101.769 25.6125C104.615 25.6125 107.459 25.6125 110.308 25.6125C110.306 31.2288 110.308 36.8451 110.306 42.4592C104.689 42.466 99.0732 42.4615 93.4568 42.4592C93.4591 39.6151 93.4568 36.771 93.4546 33.9269C96.2246 33.9224 98.9968 33.9246 101.767 33.9224C101.767 31.1524 101.767 28.3825 101.769 25.6125Z" fill="#00CB00"/>
<path d="M0.00343083 42.4614C2.84754 42.4614 5.69165 42.4614 8.538 42.4614C8.538 50.9219 8.538 59.3845 8.538 67.8472C5.69165 67.8472 2.84754 67.8472 0.00343083 67.8472C-0.00106223 59.3845 -0.00106223 50.9219 0.00343083 42.4614Z" fill="#00CB00"/>
<path d="M25.6116 42.4614C28.3816 42.4614 31.1515 42.4614 33.9215 42.4614C33.9215 45.3055 33.9238 48.1496 33.9283 50.996C36.7724 50.996 39.6165 50.9982 42.4606 51.0027C42.4561 53.8446 42.4583 56.6865 42.4628 59.5306C36.8465 59.5396 31.2302 59.5396 25.6138 59.5306C25.6116 53.8401 25.6071 48.1496 25.6116 42.4614Z" fill="#00CB00"/>
<path d="M110.306 42.4592C113.15 42.4614 115.994 42.4614 118.84 42.4614C118.845 50.9241 118.843 59.3868 118.84 67.8495C115.996 67.8472 113.15 67.8472 110.306 67.8472C110.304 59.3845 110.306 50.9218 110.306 42.4592Z" fill="#00CB00"/>
<path d="M8.53802 67.8472C11.3821 67.8472 14.2285 67.8472 17.0748 67.8495C17.0726 70.6936 17.0748 73.5377 17.0748 76.384C14.2285 76.384 11.3844 76.384 8.53802 76.384C8.53802 73.5377 8.53802 70.6913 8.53802 67.8472Z" fill="#00CB00"/>
<path d="M101.771 67.8472C104.615 67.8495 107.46 67.8472 110.306 67.8472C110.306 70.6913 110.306 73.5377 110.306 76.384C107.46 76.384 104.613 76.384 101.769 76.384C101.769 73.5377 101.769 70.6936 101.771 67.8472Z" fill="#00CB00"/>
<path d="M17.0748 76.384C45.307 76.384 73.5369 76.384 101.769 76.384C101.769 79.2281 101.769 82.0722 101.769 84.9186C98.9968 84.9186 96.2268 84.9231 93.4591 84.9231C93.4569 87.6908 93.4569 90.4608 93.4569 93.233C90.6105 93.2308 87.7642 93.233 84.92 93.2308C84.9178 90.4608 84.9156 87.6908 84.92 84.9231C67.9205 84.9186 50.9233 84.9186 33.9238 84.9231C33.926 87.6908 33.9238 90.4608 33.9238 93.233C31.1516 93.233 28.3816 93.2308 25.6116 93.233C25.6116 90.4608 25.6116 87.6908 25.6094 84.9231C22.763 84.9208 19.9189 84.9186 17.0726 84.9186C17.0748 82.0722 17.0748 79.2281 17.0748 76.384Z" fill="#00CB00"/>
<path d="M17.0771 93.233C19.9212 93.233 22.7653 93.2307 25.6117 93.233C25.6117 96.0771 25.6139 98.9235 25.6117 101.77C28.3816 101.768 31.1516 101.768 33.9238 101.77C33.9216 98.9235 33.9238 96.0771 33.9238 93.233C36.7679 93.233 39.6143 93.233 42.4584 93.233C42.4651 101.77 42.4584 110.307 42.4607 118.843C39.6143 118.843 36.7702 118.843 33.9261 118.843C33.9238 115.997 33.9238 113.151 33.9216 110.307C28.3075 110.307 22.6912 110.307 17.0771 110.304C17.0726 104.614 17.0726 98.9235 17.0771 93.233Z" fill="#00CB00"/>
<path d="M76.3855 93.2331C79.2296 93.2353 82.0737 93.2331 84.9201 93.2308C84.9201 96.0772 84.9223 98.9235 84.9201 101.77C87.7642 101.768 90.6106 101.768 93.4569 101.77C93.4547 98.9235 93.4547 96.0772 93.4569 93.2331C96.2269 93.2308 98.9969 93.2331 101.767 93.2331C101.771 98.9235 101.771 104.614 101.767 110.307C96.1528 110.307 90.5364 110.307 84.9224 110.309C84.9201 113.153 84.9179 115.997 84.9179 118.844C82.0715 118.844 79.2274 118.844 76.3833 118.844C76.3855 110.307 76.3788 101.77 76.3855 93.2331Z" fill="#00CB00"/>
<path d="M42.4606 118.843C45.3047 118.841 48.1511 118.843 50.9974 118.843C50.9974 121.613 50.9974 124.383 50.9974 127.156C48.1511 127.153 45.3047 127.153 42.4584 127.156C42.4606 124.383 42.4606 121.613 42.4606 118.843Z" fill="#00CB00"/>
<path d="M50.9997 110.311C56.6138 110.302 62.2301 110.3 67.8464 110.311C67.8442 113.153 67.8442 115.997 67.8464 118.843C62.2301 118.843 56.6138 118.846 50.9974 118.843C50.9974 115.997 50.9974 113.155 50.9997 110.311Z" fill="#00CB00"/>
<path d="M67.8464 118.843C70.6928 118.841 73.5369 118.841 76.3832 118.843C76.3832 121.613 76.3832 124.383 76.3832 127.156C73.5369 127.153 70.6905 127.153 67.8442 127.156C67.8442 124.383 67.8464 121.613 67.8464 118.843Z" fill="#00CB00"/>
<path d="M76.3854 42.4614C79.2296 42.4614 82.0737 42.4614 84.9178 42.4614C84.9178 45.3055 84.92 48.1519 84.9223 50.996C87.7664 50.996 90.6127 50.9982 93.4591 51.0005C93.4568 53.8446 93.4546 56.6887 93.4568 59.5328C87.7664 59.5373 82.0759 59.5373 76.3854 59.5328C76.381 53.8424 76.381 48.1519 76.3854 42.4614Z" fill="#00CB00"/>
<path d="M50.9974 59.5373C56.6138 59.5306 62.2301 59.5328 67.8487 59.5373C67.8442 62.3051 67.8442 65.075 67.8464 67.845C62.2301 67.8517 56.6138 67.8495 50.9952 67.845C50.9974 65.075 50.9997 62.3051 50.9974 59.5373Z" fill="#00CB00"/>
</svg>
