<svg width="116" height="128" viewBox="0 0 116 128" fill="none" xmlns="http://www.w3.org/2000/svg">
<path d="M15.7712 0C22.3459 0 28.9107 0 35.4853 0C35.4755 2.95711 35.4853 5.91422 35.4853 8.87132C38.4424 8.87132 41.3995 8.87132 44.3566 8.87132C44.3566 14.7855 44.3763 20.6998 44.3271 26.6041C47.6193 26.614 50.9115 26.614 54.2136 26.614C54.2136 29.5711 54.2136 32.5282 54.2136 35.4853C56.1851 35.4853 58.1565 35.4853 60.1279 35.4853C60.1279 32.5282 60.1279 29.5711 60.1279 26.614C63.085 26.614 66.0421 26.6041 68.9992 26.614C69.009 20.6998 68.9893 14.7855 68.9992 8.87132C71.9563 8.87132 74.9134 8.87132 77.8705 8.87132C77.8607 5.91422 77.8705 2.95711 77.8705 0C84.4452 0 91.0099 0 97.5846 0C97.5747 2.95711 97.5846 5.91422 97.5846 8.87132C100.216 8.87132 102.838 8.87132 105.47 8.87132C105.47 15.446 105.47 22.0107 105.47 28.5854C102.513 28.5854 99.556 28.5854 96.5989 28.5854C96.5989 36.7963 96.5989 45.017 96.5989 53.2279C100.216 53.2279 103.824 53.2279 107.442 53.2279C107.451 59.1422 107.432 65.0564 107.442 70.9706C110.064 70.9706 112.695 70.9706 115.327 70.9706C115.327 77.8705 115.327 84.7606 115.327 91.6605C112.695 91.6605 110.064 91.6703 107.442 91.6703C107.442 94.6275 107.432 97.5846 107.442 100.542C104.484 100.532 101.527 100.542 98.5703 100.542C98.59 109.413 98.5111 118.284 98.5703 127.156C94.9527 127.156 91.3451 127.156 87.7275 127.156C87.7275 124.199 87.7177 121.241 87.7275 118.284C73.9277 118.314 60.1279 118.235 46.328 118.294C46.328 121.251 46.328 124.199 46.328 127.156C37.1314 127.156 27.925 127.156 18.7283 127.156C18.7283 123.538 18.7283 119.93 18.7283 116.313C21.3602 116.313 23.9822 116.313 26.614 116.313C26.614 114.006 26.614 111.71 26.614 109.413C23.6569 109.413 20.6998 109.403 17.7427 109.413C17.7427 106.456 17.7328 103.499 17.7427 100.542C14.7856 100.542 11.8284 100.532 8.87134 100.542C8.87134 97.5846 8.86148 94.6275 8.87134 91.6802C5.91423 91.6506 2.95711 91.6408 0 91.6703C0 85.4309 0 79.1815 0 72.942C2.63183 72.942 5.2538 72.942 7.88563 72.942C7.89548 66.6926 7.87577 60.4532 7.88563 54.2137C10.8427 54.2137 13.7998 54.2137 16.757 54.2137C16.757 46.0028 16.757 37.782 16.757 29.5711C13.4647 29.5711 10.1823 29.5711 6.89992 29.5711C6.89992 22.6712 6.89992 15.7712 6.89992 8.87132C9.85702 8.87132 12.8141 8.87132 15.7712 8.87132C15.7614 5.91422 15.7712 2.95711 15.7712 0ZM26.614 46.328C26.614 48.9598 26.614 51.5818 26.614 54.2137C29.8964 54.2137 33.1788 54.2137 36.471 54.2137C36.471 57.8213 36.471 61.4388 36.471 65.0465C32.8633 65.0662 29.2557 65.0662 25.6579 65.0268C25.6283 62.0795 25.6184 59.1323 25.6283 56.1851C23.3217 56.1851 21.025 56.1851 18.7283 56.1851C18.7283 61.4487 18.7185 66.7123 18.7382 71.976C21.6855 71.9464 24.6426 71.9464 27.5997 71.9563C27.5997 78.5309 27.5997 85.0957 27.5997 91.6703C25.2931 91.6703 22.9965 91.6703 20.6998 91.6703C20.6998 93.967 20.6998 96.2637 20.6998 98.5604C23.6569 98.5604 26.614 98.5801 29.5711 98.6097C29.5711 101.547 29.5711 104.494 29.5711 107.442C46.0422 107.442 62.5034 107.442 78.9647 107.442C78.8464 104.149 78.8267 100.867 78.8661 97.5846C84.4452 97.5747 90.0242 97.5944 95.6132 97.5846C95.6132 83.1243 95.6132 68.6739 95.6132 54.2137C93.3066 54.2137 91.0099 54.2137 88.7231 54.2235C88.7133 57.496 88.7034 60.7784 88.7133 64.0707C85.0957 64.0707 81.488 64.0707 77.8705 64.0707C77.8607 60.4531 77.8607 56.8356 77.8705 53.2279C81.1529 53.2279 84.4452 53.2279 87.7275 53.2279C87.7275 50.9214 87.7275 48.6247 87.7275 46.328C67.3531 46.328 46.9885 46.328 26.614 46.328Z" fill="#00CB00"/>
<path d="M43.3709 62.0993C52.5675 62.0993 61.7641 62.0993 70.9706 62.0993C70.9706 66.0322 70.9903 69.9652 70.9312 73.8883C61.7444 73.9671 52.5577 73.908 43.3709 73.9277C43.3709 69.9849 43.3709 66.0421 43.3709 62.0993Z" fill="#00CB00"/>
</svg>
