<svg width="128" height="128" viewBox="0 0 128 128" fill="none" xmlns="http://www.w3.org/2000/svg">
<path d="M45.4135 0C60.5511 0 75.6887 0 90.8263 0C90.8282 3.02752 90.8263 6.05503 90.8263 9.08255C75.6887 9.08255 60.5511 9.08255 45.4135 9.08255C45.4116 6.05503 45.4116 3.02752 45.4135 0Z" fill="#00CB00"/>
<path d="M36.331 9.08257C39.3585 9.08067 42.386 9.08067 45.4135 9.08257C45.4154 12.1101 45.4135 15.1376 45.4116 18.1651C42.386 18.1651 39.3585 18.167 36.3329 18.1651C36.3272 15.1376 36.3291 12.1101 36.331 9.08257Z" fill="#00CB00"/>
<path d="M90.8263 9.08257C93.8538 9.08067 96.8794 9.08067 99.9088 9.08257C99.9107 12.1101 99.9088 15.1376 99.9088 18.1651C96.8794 18.167 93.8538 18.1651 90.8263 18.1632C90.8263 15.1357 90.8225 12.1101 90.8263 9.08257Z" fill="#00CB00"/>
<path d="M9.08333 18.1651C18.1659 18.1632 27.2484 18.1651 36.3329 18.1651C36.3291 21.1926 36.3329 24.2182 36.331 27.2457C27.2484 27.2495 18.1659 27.2457 9.08333 27.2476C9.08144 24.2201 9.08144 21.1926 9.08333 18.1651Z" fill="#00CB00"/>
<path d="M45.4116 18.1651C48.441 18.167 51.4685 18.1632 54.4961 18.1651C54.4942 21.1926 54.4942 24.2201 54.4998 27.2476C51.4704 27.2458 48.4429 27.2458 45.4154 27.2495C45.4097 24.2201 45.4173 21.1926 45.4116 18.1651Z" fill="#00CB00"/>
<path d="M81.7418 18.167C84.7693 18.1613 87.7987 18.1689 90.8263 18.1632C90.8225 21.1907 90.8281 24.2201 90.8263 27.2476C87.7968 27.2458 84.7693 27.2458 81.7437 27.2514C81.7437 24.222 81.7456 21.1945 81.7418 18.167Z" fill="#00CB00"/>
<path d="M99.9089 18.1651C102.934 18.1632 105.962 18.1632 108.991 18.1651C108.993 21.1926 108.991 24.2201 108.991 27.2476C105.964 27.2457 102.936 27.2495 99.9107 27.2457C99.9051 24.2182 99.9107 21.1907 99.9089 18.1651Z" fill="#00CB00"/>
<path d="M0.000840976 27.2476C3.02836 27.2457 6.05587 27.2457 9.08339 27.2476C9.08339 30.2752 9.08528 33.3027 9.08339 36.3302C6.05587 36.3321 3.02836 36.3302 0.000840976 36.3302C-0.00105122 33.3027 0.000840976 30.2752 0.000840976 27.2476Z" fill="#00CB00"/>
<path d="M108.991 27.2476C112.019 27.2439 115.045 27.2457 118.074 27.2476C118.074 39.3577 118.074 51.4678 118.074 63.5797C115.046 63.574 112.019 63.5797 108.993 63.5759C108.989 51.4678 108.991 39.3577 108.991 27.2476Z" fill="#00CB00"/>
<path d="M9.08333 36.3302C18.1659 36.3321 27.2484 36.3283 36.331 36.3302C36.3291 39.3577 36.3291 42.3852 36.3329 45.4109C27.2503 45.4146 18.1659 45.4109 9.08333 45.4127C9.08144 42.3852 9.08144 39.3577 9.08333 36.3302Z" fill="#00CB00"/>
<path d="M0.000840976 45.4127C3.02836 45.4108 6.05587 45.4108 9.08339 45.4127C9.08339 48.4403 9.08528 51.4678 9.08339 54.4953C6.05587 54.4972 3.02836 54.4953 0.000840976 54.4953C-0.00105122 51.4659 0.000840976 48.4403 0.000840976 45.4127Z" fill="#00CB00"/>
<path d="M9.08333 54.4953C18.1659 54.4953 27.2465 54.4934 36.3291 54.4953C36.3329 66.6053 36.3291 78.7154 36.331 90.8255C33.3035 90.8274 30.2759 90.8255 27.2484 90.8255C27.2446 81.7429 27.2503 72.6604 27.2484 63.5778C21.1934 63.5759 15.1384 63.5797 9.08333 63.5778C9.08144 60.5484 9.08144 57.5228 9.08333 54.4953Z" fill="#00CB00"/>
<path d="M118.074 63.5797C121.1 63.574 124.127 63.5759 127.156 63.5778C127.156 72.6604 127.156 81.7429 127.156 90.8255C124.127 90.8273 121.101 90.8273 118.074 90.8255C118.074 81.7429 118.074 72.6604 118.074 63.5797Z" fill="#00CB00"/>
<path d="M36.331 90.8255C39.3585 90.8255 42.3841 90.8236 45.4117 90.8274C45.4154 93.853 45.4098 96.8786 45.4154 99.9061C42.386 99.9099 39.3585 99.908 36.331 99.908C36.3291 96.8786 36.3291 93.8511 36.331 90.8255Z" fill="#00CB00"/>
<path d="M108.993 90.8274C112.019 90.8217 115.046 90.8274 118.074 90.8255C118.076 93.8511 118.074 96.8786 118.074 99.908C115.044 99.9099 112.017 99.9099 108.991 99.908C108.991 96.8805 108.988 93.853 108.993 90.8274Z" fill="#00CB00"/>
<path d="M45.4155 99.9061C48.4411 99.9099 51.4686 99.9061 54.4961 99.9099C54.4961 105.963 54.498 112.018 54.4961 118.073C51.4686 118.075 48.4411 118.073 45.4136 118.073C45.4136 112.016 45.4117 105.961 45.4155 99.9061Z" fill="#00CB00"/>
<path d="M99.9107 99.9099C102.936 99.9042 105.962 99.9099 108.991 99.908C108.993 105.961 108.991 112.016 108.991 118.073C105.962 118.073 102.936 118.073 99.9088 118.073C99.9088 112.018 99.9069 105.963 99.9107 99.9099Z" fill="#00CB00"/>
<path d="M54.4961 118.073C57.5236 118.071 60.5511 118.071 63.5786 118.073C63.5805 121.101 63.5786 124.128 63.5786 127.156C60.5492 127.156 57.5236 127.156 54.4961 127.156C54.4942 124.126 54.4961 121.101 54.4961 118.073Z" fill="#00CB00"/>
<path d="M63.5787 99.908C72.6612 99.9061 81.7438 99.9062 90.8263 99.9099C90.8263 105.963 90.8282 112.018 90.8263 118.073C87.7988 118.075 84.7713 118.073 81.7456 118.073C81.7419 115.044 81.7438 112.016 81.7438 108.991C78.7162 108.989 75.6887 108.989 72.6631 108.991C72.6612 112.018 72.6612 115.046 72.6612 118.073C69.6318 118.073 66.6062 118.073 63.5787 118.073C63.5768 112.018 63.5787 105.963 63.5787 99.908Z" fill="#00CB00"/>
<path d="M90.8263 118.073C93.8538 118.071 96.8813 118.071 99.9088 118.073C99.9107 121.101 99.9088 124.128 99.9088 127.156C96.8794 127.156 93.8538 127.156 90.8263 127.156C90.8225 124.126 90.8244 121.101 90.8263 118.073Z" fill="#00CB00"/>
<path d="M72.6611 63.5778C75.6887 63.5759 78.7162 63.5759 81.7437 63.5778C81.7437 69.6329 81.7456 75.6879 81.7437 81.7429C78.7162 81.7448 75.6887 81.7429 72.6611 81.7429C72.6593 75.686 72.6593 69.6329 72.6611 63.5778Z" fill="#00CB00"/>
<path d="M81.7437 81.7429C84.7712 81.7391 87.7987 81.7391 90.8262 81.7429C90.8281 84.7704 90.8281 87.7979 90.8244 90.8254C87.7968 90.8254 84.7712 90.8254 81.7437 90.8254C81.7399 87.7979 81.7418 84.7704 81.7437 81.7429Z" fill="#00CB00"/>
<path d="M90.8263 63.5779C93.8538 63.576 96.8813 63.5779 99.9088 63.5779C99.9088 69.6329 99.9088 75.6879 99.9088 81.743C96.8794 81.743 93.8538 81.7449 90.8263 81.743C90.8244 75.6879 90.8263 69.6329 90.8263 63.5779Z" fill="#00CB00"/>
</svg>
