<svg width="125" height="131" viewBox="0 0 125 131" fill="none" xmlns="http://www.w3.org/2000/svg">
<path d="M45.2489 0C60.4373 0 75.6257 0 90.8142 0C90.8142 1.89855 90.8142 3.7971 90.8142 5.69566C75.6257 5.69566 60.4373 5.69566 45.2489 5.69566C45.2489 3.7971 45.2489 1.89855 45.2489 0Z" fill="#00CB00"/>
<path d="M39.5532 5.69574C41.4517 5.69574 43.3503 5.69574 45.2488 5.69574C45.2488 7.59429 45.2488 9.49284 45.2488 11.3914C43.3503 11.3914 41.4517 11.3914 39.5532 11.3914C39.5532 9.49284 39.5532 7.59429 39.5532 5.69574Z" fill="#00CB00"/>
<path d="M90.8143 5.69574C92.7128 5.69574 94.6114 5.69574 96.5099 5.69574C96.5099 7.59429 96.5099 9.49284 96.5099 11.3914C94.6114 11.3914 92.7128 11.3914 90.8143 11.3914C90.8143 9.49284 90.8143 7.59429 90.8143 5.69574Z" fill="#00CB00"/>
<path d="M33.8577 11.3914C35.7562 11.3914 37.6548 11.3914 39.5533 11.3914C39.5533 15.1885 39.5533 18.9856 39.5533 22.7827C37.6548 22.7827 35.7562 22.7827 33.8577 22.7827C33.8577 18.9856 33.8577 15.1885 33.8577 11.3914Z" fill="#00CB00"/>
<path d="M96.5098 11.3914C98.4084 11.3914 100.307 11.3914 102.205 11.3914C102.205 13.2899 102.205 15.1885 102.205 17.087C100.307 17.087 98.4084 17.087 96.5098 17.087C96.5098 15.1885 96.5098 13.2899 96.5098 11.3914Z" fill="#00CB00"/>
<path d="M45.2489 22.7827C47.1475 22.7827 49.046 22.7827 50.9446 22.7827C50.9446 24.6812 50.9446 26.5798 50.9446 28.4783C49.046 28.4783 47.1475 28.4783 45.2489 28.4783C45.2489 26.5798 45.2489 24.6812 45.2489 22.7827Z" fill="#00CB00"/>
<path d="M73.7272 39.8697C75.6258 39.8697 77.5243 39.8697 79.4229 39.8697C79.4229 41.7682 79.4229 43.6668 79.4229 45.5653C77.5243 45.5653 75.6258 45.5653 73.7272 45.5653C73.7272 43.6668 73.7272 41.7682 73.7272 39.8697Z" fill="#00CB00"/>
<path d="M85.1186 39.8697C87.0171 39.8697 88.9157 39.8697 90.8142 39.8697C90.8142 47.4639 90.8142 55.0581 90.8142 62.6523C88.9157 62.6523 87.0171 62.6523 85.1186 62.6523C85.1186 55.0581 85.1186 47.4639 85.1186 39.8697Z" fill="#00CB00"/>
<path d="M90.8143 62.6523C92.7128 62.6523 94.6114 62.6523 96.5099 62.6523C96.5099 66.4494 96.5099 70.2466 96.5099 74.0437C94.6114 74.0437 92.7128 74.0437 90.8143 74.0437C90.8143 70.2466 90.8143 66.4494 90.8143 62.6523Z" fill="#00CB00"/>
<path d="M96.5098 74.0436C104.104 74.0436 111.698 74.0436 119.292 74.0436C119.292 75.9421 119.292 77.8407 119.292 79.7392C117.394 79.7392 115.495 79.7392 113.597 79.7392C113.597 83.5363 113.597 87.3334 113.597 91.1306C117.394 91.1306 121.191 91.1306 124.988 91.1306C124.988 94.9277 124.988 98.7248 124.988 102.522C123.09 102.522 121.191 102.522 119.292 102.522C119.292 100.623 119.292 98.7248 119.292 96.8262C115.495 96.8262 111.698 96.8262 107.901 96.8262C107.901 91.1306 107.901 85.4349 107.901 79.7392C104.104 79.7392 100.307 79.7392 96.5098 79.7392C96.5098 77.8407 96.5098 75.9421 96.5098 74.0436Z" fill="#00CB00"/>
<path d="M102.206 17.087C104.104 17.087 106.003 17.087 107.901 17.087C107.901 18.9855 107.901 20.8841 107.901 22.7826C106.003 22.7826 104.104 22.7826 102.206 22.7826C102.206 20.8841 102.206 18.9855 102.206 17.087Z" fill="#00CB00"/>
<path d="M107.901 22.7827C109.8 22.7827 111.698 22.7827 113.597 22.7827C113.597 26.5798 113.597 30.3769 113.597 34.174C111.698 34.174 109.8 34.174 107.901 34.174C107.901 30.3769 107.901 26.5798 107.901 22.7827Z" fill="#00CB00"/>
<path d="M113.597 34.174C115.495 34.174 117.394 34.174 119.292 34.174C119.292 39.8696 119.292 45.5653 119.292 51.2609C117.394 51.2609 115.495 51.2609 113.597 51.2609C113.597 45.5653 113.597 39.8696 113.597 34.174Z" fill="#00CB00"/>
<path d="M119.293 51.2609C121.191 51.2609 123.09 51.2609 124.988 51.2609C124.988 58.8551 124.988 66.4493 124.988 74.0436C123.09 74.0436 121.191 74.0436 119.293 74.0436C119.293 66.4493 119.293 58.8551 119.293 51.2609Z" fill="#00CB00"/>
<path d="M102.205 96.8262C104.104 96.8262 106.003 96.8262 107.901 96.8262C107.901 98.7248 107.901 100.623 107.901 102.522C111.698 102.522 115.495 102.522 119.292 102.522C119.292 104.42 119.292 106.319 119.292 108.218C115.495 108.218 111.698 108.218 107.901 108.218C107.901 110.116 107.901 112.015 107.901 113.913C106.003 113.913 104.104 113.913 102.205 113.913C102.205 112.015 102.205 110.116 102.205 108.218C100.307 108.218 98.4084 108.218 96.5098 108.218C96.5098 106.319 96.5098 104.42 96.5098 102.522C98.4084 102.522 100.307 102.522 102.205 102.522C102.205 100.623 102.205 98.7248 102.205 96.8262Z" fill="#00CB00"/>
<path d="M33.8577 102.522C35.7562 102.522 37.6548 102.522 39.5533 102.522C39.5533 104.42 39.5533 106.319 39.5533 108.217C58.5388 108.217 77.5244 108.217 96.5099 108.217C96.5099 110.116 96.5099 112.014 96.5099 113.913C94.6113 113.913 92.7128 113.91 90.8142 113.913C90.8142 115.812 90.8142 117.71 90.8142 119.609C88.9157 119.609 87.0171 119.609 85.1186 119.609C85.1186 117.71 85.1186 115.812 85.1186 113.913C77.5244 113.913 69.9302 113.913 62.3359 113.913C62.3359 115.812 62.3359 117.71 62.3359 119.609C60.4374 119.609 58.5388 119.609 56.6403 119.609C56.6403 117.71 56.6403 115.812 56.6403 113.913C49.0461 113.913 41.4519 113.913 33.8577 113.913C33.8577 110.116 33.8577 106.319 33.8577 102.522Z" fill="#00CB00"/>
<path d="M50.9446 56.9566C54.7417 56.9566 58.5388 56.9566 62.3359 56.9566C62.3359 58.8552 62.3359 60.7537 62.3359 62.6523C58.5388 62.6523 54.7417 62.6523 50.9446 62.6523C50.9446 60.7537 50.9446 58.8552 50.9446 56.9566Z" fill="#00CB00"/>
<path d="M22.4662 62.6523C31.959 62.6523 41.4518 62.6523 50.9445 62.6523C50.9445 64.5509 50.9445 66.4494 50.9445 68.348C43.3503 68.348 35.7561 68.348 28.1619 68.348C28.1619 77.8408 28.1619 87.3335 28.1619 96.8263C26.2634 96.8263 24.3648 96.8263 22.4662 96.8263C22.4662 85.435 22.4662 74.0437 22.4662 62.6523Z" fill="#00CB00"/>
<path d="M0 22.7827C5.69566 22.7827 11.3913 22.7827 17.087 22.7827C17.087 24.6812 17.087 26.5798 17.087 28.4783C20.7797 28.4783 24.4692 28.4783 28.1619 28.4783C28.1619 26.5798 28.1619 24.6812 28.1619 22.7827C30.0604 22.7827 31.959 22.7827 33.8575 22.7827C33.8575 26.5798 33.8575 30.3769 33.8575 34.174C26.3677 34.174 18.8811 34.174 11.3913 34.174C11.3913 41.7682 11.3913 49.3624 11.3913 56.9566C9.49276 56.9566 7.59421 56.9566 5.69566 56.9566C5.69566 51.2609 5.69566 45.5653 5.69566 39.8696C3.79711 39.8696 1.89855 39.8696 0 39.8696C0 34.174 0 28.4783 0 22.7827Z" fill="#00CB00"/>
<path d="M11.3914 56.9566C15.0841 56.9566 18.7736 56.9566 22.4663 56.9566C22.4663 58.8552 22.4663 60.7537 22.4663 62.6523C18.7736 62.6523 15.0841 62.6523 11.3914 62.6523C11.3914 60.7537 11.3914 58.8552 11.3914 56.9566Z" fill="#00CB00"/>
<path d="M28.1619 96.8262C30.0605 96.8262 31.959 96.8262 33.8576 96.8262C33.8576 98.7248 33.8576 100.623 33.8576 102.522C31.959 102.522 30.0605 102.522 28.1619 102.522C28.1619 100.623 28.1619 98.7248 28.1619 96.8262Z" fill="#00CB00"/>
<path d="M28.1619 113.913C30.0605 113.913 31.959 113.913 33.8576 113.913C33.8576 117.71 33.8576 121.507 33.8576 125.304C31.959 125.304 30.0605 125.304 28.1619 125.304C28.1619 121.507 28.1619 117.71 28.1619 113.913Z" fill="#00CB00"/>
<path d="M107.901 113.913C109.8 113.913 111.698 113.913 113.597 113.913C113.597 117.71 113.597 121.507 113.597 125.304C111.698 125.304 109.8 125.304 107.901 125.304C107.901 121.507 107.901 117.71 107.901 113.913Z" fill="#00CB00"/>
<path d="M50.9446 119.609C52.8431 119.609 54.7417 119.609 56.6402 119.609C56.6402 121.507 56.6402 123.406 56.6402 125.305C54.7417 125.305 52.8431 125.305 50.9446 125.305C50.9446 123.406 50.9446 121.507 50.9446 119.609Z" fill="#00CB00"/>
<path d="M90.8143 119.609C92.7128 119.609 94.6114 119.609 96.5099 119.609C96.5099 121.507 96.5099 123.406 96.5099 125.305C94.6114 125.305 92.7128 125.305 90.8143 125.305C90.8143 123.406 90.8143 121.507 90.8143 119.609Z" fill="#00CB00"/>
<path d="M33.8577 125.304C39.5533 125.304 45.249 125.304 50.9446 125.304C50.9446 127.203 50.9446 129.101 50.9446 131C45.249 131 39.5533 131 33.8577 131C33.8577 129.101 33.8577 127.203 33.8577 125.304Z" fill="#00CB00"/>
<path d="M96.5098 125.304C100.307 125.304 104.104 125.304 107.901 125.304C107.901 127.203 107.901 129.101 107.901 131C104.104 131 100.307 131 96.5098 131C96.5098 129.101 96.5098 127.203 96.5098 125.304Z" fill="#00CB00"/>
<path d="M68.0316 79.7393C69.9301 79.7393 71.8287 79.7393 73.7272 79.7393C73.7272 83.5364 73.7272 87.3335 73.7272 91.1306C71.8287 91.1306 69.9301 91.1306 68.0316 91.1306C68.0316 87.3335 68.0316 83.5364 68.0316 79.7393Z" fill="#00CB00"/>
<path d="M73.7272 91.1305C75.6258 91.1305 77.5243 91.1305 79.4229 91.1305C79.4229 93.029 79.4229 94.9276 79.4229 96.8262C77.5243 96.8262 75.6258 96.8262 73.7272 96.8262C73.7272 94.9276 73.7272 93.029 73.7272 91.1305Z" fill="#00CB00"/>
<path d="M85.1185 79.7393C87.0171 79.7393 88.9156 79.7393 90.8142 79.7393C90.8142 87.3335 90.8142 94.9277 90.8142 102.522C87.0171 102.522 83.22 102.522 79.4229 102.522C79.4229 100.623 79.4229 98.7248 79.4229 96.8262C81.3214 96.8262 83.22 96.8262 85.1185 96.8262C85.1185 91.1306 85.1185 85.4349 85.1185 79.7393Z" fill="#00CB00"/>
</svg>
