<svg width="117" height="128" viewBox="0 0 117 128" fill="none" xmlns="http://www.w3.org/2000/svg">
<path d="M42.3881 0.00331131C52.982 -0.00110377 63.576 -0.00110377 74.1722 0.00331131C74.1788 3.53316 74.1678 7.06302 74.1766 10.5951C77.7065 10.6017 81.2363 10.5907 84.7684 10.5995C84.775 14.1293 84.764 17.6614 84.7728 21.1913C88.3027 21.1979 91.8325 21.1868 95.3646 21.1957C95.3712 24.7255 95.3602 28.2554 95.369 31.7874C98.8988 31.7941 102.429 31.783 105.961 31.7919C105.97 38.8538 105.956 45.9157 105.965 52.9798C109.495 52.9864 113.027 52.9776 116.557 52.9842C116.559 70.6423 116.561 88.3004 116.557 105.961C109.493 105.97 102.431 105.956 95.369 105.965C95.3646 109.495 95.3624 113.025 95.369 116.557C98.8988 116.564 102.431 116.553 105.963 116.561C105.965 120.091 105.965 123.623 105.961 127.153C95.3668 127.155 84.7728 127.158 74.1766 127.153C74.1678 123.621 74.1788 120.091 74.1722 116.561C63.5782 116.557 52.982 116.557 42.3881 116.561C42.3792 120.091 42.3903 123.621 42.3837 127.153C31.7875 127.155 21.1935 127.158 10.5995 127.153C10.5951 123.621 10.5929 120.091 10.5995 116.561C14.1294 116.553 17.6614 116.564 21.1913 116.557C21.1957 113.025 21.1891 109.493 21.1957 105.963C38.8538 105.961 56.5119 105.967 74.1722 105.961C74.1744 102.429 74.1722 98.8988 74.1766 95.369C77.7065 95.3646 81.2385 95.3668 84.7684 95.3646C84.7728 84.7684 84.7728 74.1744 84.7684 63.5804C81.2385 63.5782 77.7065 63.5782 74.1766 63.576C74.1722 60.0439 74.1744 56.5141 74.1722 52.9842C56.5141 52.982 38.856 52.9776 21.1979 52.9864C21.1935 56.5163 21.1935 60.0461 21.1913 63.576C17.6592 63.5804 14.1294 63.5782 10.5973 63.5782C10.5951 56.5163 10.5951 49.4522 10.5995 42.3903C14.1294 42.3792 17.6614 42.3925 21.1913 42.3836C21.2001 35.3217 21.1869 28.2576 21.1957 21.1957C24.7256 21.1891 28.2554 21.1979 31.7875 21.1913C31.7941 17.6614 31.7831 14.1293 31.7919 10.5995C35.3217 10.5907 38.8516 10.6039 42.3837 10.5951C42.3903 7.06302 42.3792 3.53316 42.3881 0.00331131ZM52.9843 10.5973C52.9776 14.1293 52.9798 17.6592 52.982 21.1913C56.5141 21.1979 60.044 21.1957 63.576 21.1935C63.5804 17.6614 63.5804 14.1293 63.5782 10.5995C60.0462 10.5929 56.5141 10.5951 52.9843 10.5973ZM31.7919 31.7897C31.7853 35.3217 31.7875 38.8516 31.7897 42.3836C35.3217 42.3903 38.8516 42.388 42.3837 42.3858C42.3903 38.8538 42.3881 35.3217 42.3859 31.7919C38.8538 31.7852 35.3217 31.7874 31.7919 31.7897ZM63.5804 31.7897C63.5738 35.3217 63.576 38.8516 63.5782 42.3836C67.1103 42.3903 70.6401 42.388 74.1722 42.3858C74.1766 38.8538 74.1766 35.3217 74.1744 31.7919C70.6424 31.7852 67.1103 31.7874 63.5804 31.7897ZM84.7728 42.3858C84.7662 45.9179 84.7684 49.4478 84.7706 52.9798C88.3027 52.9842 91.8325 52.9842 95.3646 52.982C95.369 49.45 95.369 45.9179 95.3668 42.388C91.8347 42.3814 88.3027 42.3836 84.7728 42.3858ZM95.369 74.1744C95.3624 77.7065 95.3646 81.2363 95.3668 84.7684C98.8988 84.7728 102.429 84.7728 105.961 84.7706C105.965 81.2385 105.965 77.7064 105.963 74.1766C102.431 74.17 98.8988 74.1722 95.369 74.1744Z" fill="#00CB00"/>
<path d="M0.00331131 63.5804C3.53316 63.5738 7.06523 63.5738 10.5973 63.5782C10.5973 74.1744 10.5973 84.7706 10.5973 95.3668C7.06523 95.369 3.53316 95.369 0.00331131 95.3646C-0.00110377 84.7684 -0.00110377 74.1744 0.00331131 63.5804Z" fill="#00CB00"/>
<path d="M10.5974 95.3667C14.1294 95.3645 17.6593 95.3645 21.1914 95.369C21.1958 98.8988 21.1936 102.431 21.1958 105.963C17.6637 105.965 14.1316 105.965 10.5996 105.961C10.5952 102.429 10.593 98.8966 10.5974 95.3667Z" fill="#00CB00"/>
<path d="M52.9843 63.5782C56.5141 63.576 60.0462 63.5738 63.5782 63.5804C63.5805 67.1103 63.5805 70.6423 63.576 74.1744C60.044 74.1766 56.5141 74.1766 52.9821 74.1722C52.9799 70.6401 52.9777 67.1103 52.9843 63.5782Z" fill="#00CB00"/>
<path d="M21.1958 74.1744C24.7257 74.1722 28.2577 74.17 31.7876 74.1766C31.792 77.7064 31.7942 81.2385 31.7898 84.7706C28.2577 84.7728 24.7257 84.7728 21.1936 84.7684C21.1914 81.2363 21.1892 77.7065 21.1958 74.1744Z" fill="#00CB00"/>
<path d="M31.7898 84.7706C38.8539 84.7684 45.9158 84.7684 52.9799 84.7728C52.9843 88.3026 52.9843 91.8347 52.9799 95.3668C45.918 95.3668 38.8539 95.369 31.792 95.3645C31.7876 91.8325 31.7853 88.3004 31.7898 84.7706Z" fill="#00CB00"/>
</svg>
