<svg width="168" height="103" viewBox="0 0 168 103" fill="none" xmlns="http://www.w3.org/2000/svg">
<path d="M145.967 58.3392C148.514 58.3392 151.061 58.3114 153.608 58.355C153.545 60.8863 153.608 63.4216 153.569 65.9569C151.03 65.9767 148.49 65.9569 145.951 65.9688C145.959 63.4256 145.935 60.8824 145.967 58.3392Z" fill="#00CB00"/>
<path d="M87.4809 66.064C89.8257 66.0798 92.1706 66.0521 94.5154 66.0838C94.5313 75.7766 94.5194 85.4693 94.5234 95.1661C114.242 95.1899 133.965 95.1621 153.688 95.178C153.696 85.4812 153.676 75.7805 153.696 66.0838C156.04 66.0521 158.385 66.0798 160.73 66.064C160.718 75.7924 160.722 85.5209 160.726 95.2494C163.111 95.2137 165.495 95.2414 167.88 95.2295C167.868 97.5426 167.828 99.8597 167.907 102.173C138.718 102.26 109.525 102.181 80.3314 102.212C80.3512 99.8835 80.3512 97.5545 80.3314 95.2295C82.7159 95.2414 85.1004 95.2137 87.4849 95.2494C87.4849 85.5209 87.4928 75.7924 87.4809 66.064Z" fill="#00CB00"/>
<path d="M109.449 66.0084C119.221 66.0164 128.99 66.0164 138.762 66.0084C138.758 68.3731 138.762 70.7417 138.762 73.1104C128.99 73.1024 119.221 73.1024 109.449 73.1104C109.449 70.7417 109.449 68.3731 109.449 66.0084Z" fill="#00CB00"/>
<path d="M36.2993 7.74072C38.8425 7.76056 41.3897 7.72485 43.9329 7.76056C43.9408 10.1054 43.9329 12.4463 43.9369 14.7871C41.3976 14.7712 38.8584 14.7951 36.3191 14.7752C36.2874 12.4304 36.3152 10.0856 36.2993 7.74072Z" fill="#00CB00"/>
<path d="M29.1577 14.8823C31.5025 14.8982 33.8473 14.8704 36.1922 14.9022C36.208 17.2589 36.2001 19.6156 36.1961 21.9763C43.5599 21.9406 50.9277 22.0319 58.2955 21.9287C58.2439 19.5879 58.2756 17.247 58.2717 14.9022C60.6165 14.8665 62.9613 14.9101 65.3062 14.8744C65.2943 19.5998 65.3101 24.3251 65.2982 29.0505C60.557 29.0862 55.8158 29.0545 51.0745 29.0664C51.0824 31.6612 51.0706 34.256 51.0785 36.8507C55.8554 36.8547 60.6324 36.8547 65.4093 36.8507C65.4133 34.2956 65.4054 31.7405 65.4133 29.1854C67.9565 29.1497 70.4997 29.1854 73.0469 29.1656C73.0509 36.4461 73.0072 43.7265 73.0667 51.007C70.4759 51.0507 67.8891 51.0189 65.3022 51.0269C65.3062 55.9903 65.3062 60.9577 65.3022 65.9251C60.5372 65.8814 55.7721 65.9211 51.0071 65.9052C51.0348 68.2897 51.0071 70.6743 51.0229 73.0627C46.0595 73.027 41.0961 73.0667 36.1327 73.0389C36.1525 75.4234 36.1327 77.8079 36.1485 80.1964C31.4351 80.1885 26.7256 80.1845 22.0161 80.1964C22.02 77.8635 22.0319 75.5305 22.0121 73.2016C24.3966 73.2254 26.7851 73.1976 29.1735 73.2214C29.1537 65.818 29.1656 58.4145 29.1656 51.0149C26.7811 51.0427 24.3966 51.015 22.0081 51.0308C22.0359 43.7424 22.02 36.454 22.0161 29.1656C24.3609 29.1814 26.7057 29.1537 29.0505 29.1854C29.0664 31.7405 29.0505 34.2956 29.0585 36.8547C34.0338 36.8468 39.0091 36.8547 43.9845 36.8507C43.8972 34.2758 44.167 31.5739 43.8535 29.0822C38.9615 29.0346 34.0656 29.0902 29.1775 29.0584C29.1458 24.3331 29.1775 19.6077 29.1577 14.8823ZM36.1763 43.9924C36.2279 46.3729 36.1842 48.7534 36.2001 51.134C43.556 51.134 50.9118 51.138 58.2677 51.134C58.2717 48.7376 58.2717 46.3412 58.2677 43.9448C50.9039 43.9725 43.5361 43.8773 36.1763 43.9924Z" fill="#00CB00"/>
<path d="M7.1416 66.056C12.0495 66.0838 16.9574 66.0679 21.8652 66.064C21.8573 68.3969 21.8494 70.7259 21.8692 73.0588C16.9613 73.0429 12.0495 73.039 7.1416 73.0628C7.14557 70.7259 7.14557 68.3929 7.1416 66.056Z" fill="#00CB00"/>
<path d="M0 73.1975C2.32499 73.2173 4.65395 73.2213 6.98291 73.1975C6.97894 75.5304 6.97498 77.8673 6.98291 80.2042C4.65395 80.1804 2.32896 80.1804 0 80.2042C0.00396757 77.8673 0.00396757 75.5344 0 73.1975Z" fill="#00CB00"/>
<path d="M44.032 0.00396841C46.365 0.0158711 48.6979 0.0158703 51.0269 0C51.007 2.54321 51.0269 5.08246 51.0189 7.62567C48.6939 7.64947 46.369 7.65344 44.044 7.62567C44.036 5.08246 44.0558 2.54321 44.032 0.00396841Z" fill="#00CB00"/>
<path d="M51.1301 7.76056C53.4749 7.72485 55.8197 7.76453 58.1646 7.73279C58.1566 10.0776 58.1646 12.4185 58.1606 14.7633C55.8158 14.803 53.4709 14.7673 51.1261 14.7871C51.1301 12.4463 51.1221 10.1054 51.1301 7.76056Z" fill="#00CB00"/>
<path d="M116.639 0.00396841C121.618 0.0158711 126.593 0.0158703 131.573 0C131.537 4.95946 131.592 9.91495 131.541 14.8744C138.889 14.9061 146.237 14.8823 153.589 14.8823C153.581 19.5918 153.581 24.3014 153.589 29.0148C146.241 28.999 138.893 29.0148 131.549 29.0069C131.581 36.4024 131.557 43.798 131.561 51.1935C136.326 51.1856 141.091 51.2054 145.856 51.1856C145.832 53.5265 145.856 55.8713 145.836 58.2161C131.35 58.232 116.861 58.232 102.375 58.2161C102.351 55.8713 102.379 53.5265 102.355 51.1856C107.12 51.2054 111.886 51.1856 116.651 51.1935C116.655 43.798 116.635 36.4024 116.662 29.0069C109.315 29.0148 101.971 28.999 94.6226 29.0148C94.6306 24.3014 94.6306 19.5918 94.6226 14.8823C101.971 14.8982 109.315 14.8784 116.662 14.8943C116.631 9.93082 116.67 4.9674 116.639 0.00396841Z" fill="#00CB00"/>
<path d="M109.449 80.2916C119.221 80.2996 128.99 80.2996 138.762 80.2916C138.758 82.6563 138.758 85.0249 138.762 87.3936C128.99 87.3856 119.221 87.3856 109.449 87.3936C109.449 85.0249 109.449 82.6563 109.449 80.2916Z" fill="#00CB00"/>
<path d="M94.6146 58.3312C97.1578 58.3431 99.705 58.3232 102.248 58.3391C102.272 60.8823 102.252 63.4255 102.26 65.9687C99.7209 65.9529 97.1816 65.9767 94.6424 65.9569C94.6067 63.4136 94.6464 60.8704 94.6146 58.3312Z" fill="#00CB00"/>
</svg>
