<svg width="123" height="94" viewBox="0 0 123 94" fill="none" xmlns="http://www.w3.org/2000/svg">
<path d="M29.1709 0C43.1132 0 57.052 0 70.9943 0C70.9943 1.6413 70.9943 3.27909 70.9943 4.9204C57.052 4.9204 43.1132 4.9204 29.1709 4.9204C29.1709 3.27909 29.1709 1.6413 29.1709 0Z" fill="#00CB00"/>
<path d="M19.3302 4.92041C22.6093 4.92041 25.8919 4.92041 29.171 4.92041C29.171 6.56171 29.171 8.1995 29.171 9.8408C25.8884 9.8408 22.6093 9.8408 19.3302 9.8408C19.3302 8.1995 19.3302 6.56171 19.3302 4.92041Z" fill="#00CB00"/>
<path d="M70.9944 4.92041C74.2735 4.92041 77.5526 4.92041 80.8352 4.92041C80.8352 6.56171 80.8352 8.1995 80.8352 9.8408C77.5561 9.8408 74.2735 9.8408 70.9944 9.8408C70.9908 8.1995 70.9944 6.56171 70.9944 4.92041Z" fill="#00CB00"/>
<path d="M14.4097 9.84082C16.051 9.84082 17.6888 9.84082 19.3301 9.84082C19.3301 12.417 19.3301 14.9967 19.3301 17.5729C17.6888 17.5729 16.0475 17.5729 14.4097 17.5729C14.4097 14.9967 14.4097 12.417 14.4097 9.84082Z" fill="#00CB00"/>
<path d="M80.8351 9.84082C82.4728 9.84082 84.1141 9.84082 85.7554 9.84082C85.7554 12.417 85.7554 14.9967 85.7554 17.5729C84.1141 17.5729 82.4728 17.5729 80.8351 17.5729C80.8315 14.9967 80.8351 12.417 80.8351 9.84082Z" fill="#00CB00"/>
<path d="M9.48938 17.5729C11.1272 17.5729 12.7685 17.5729 14.4098 17.5729C14.4098 20.852 14.4098 24.1346 14.4098 27.4137C12.7685 27.4137 11.1272 27.4137 9.48938 27.4137C9.48938 24.1346 9.48938 20.852 9.48938 17.5729Z" fill="#00CB00"/>
<path d="M85.7555 17.5729C87.3933 17.5729 89.0346 17.5729 90.6759 17.5729C90.6759 20.852 90.6759 24.1346 90.6759 27.4137C89.0346 27.4137 87.3933 27.4137 85.7555 27.4137C85.7555 24.1346 85.7555 20.852 85.7555 17.5729Z" fill="#00CB00"/>
<path d="M4.56897 27.4137C6.20676 27.4137 7.84807 27.4137 9.48937 27.4137C9.48937 37.1385 9.48937 46.8598 9.48937 56.5846C12.7685 56.5846 16.0475 56.5846 19.3302 56.5846C19.3302 58.2259 19.3302 59.8637 19.3302 61.505C16.0475 61.505 12.7685 61.505 9.48937 61.505C9.48937 64.0812 9.48937 66.6609 9.48937 69.2371C7.84807 69.2371 6.20676 69.2371 4.56897 69.2371C4.56897 55.2948 4.56897 41.356 4.56897 27.4137Z" fill="#00CB00"/>
<path d="M90.6759 27.4137C93.2521 27.4137 95.8283 27.4137 98.408 27.4137C98.408 38.7763 98.408 50.1424 98.408 61.505C95.8283 61.505 93.2521 61.505 90.6759 61.505C90.6759 50.1424 90.6759 38.7763 90.6759 27.4137Z" fill="#00CB00"/>
<path d="M98.408 61.505C99.9298 61.505 101.452 61.505 102.977 61.505C102.977 64.0812 102.977 66.6609 102.977 69.2371C101.452 69.2371 99.9298 69.2371 98.408 69.2371C98.408 66.6609 98.408 64.0812 98.408 61.505Z" fill="#00CB00"/>
<path d="M102.977 56.5845C106.256 56.5845 109.535 56.5845 112.818 56.5845C112.818 58.2258 112.818 59.8636 112.818 61.5049C109.535 61.5049 106.256 61.5049 102.977 61.5049C102.977 59.8636 102.973 58.2258 102.977 56.5845Z" fill="#00CB00"/>
<path d="M117.738 56.5845C119.376 56.5845 121.017 56.5845 122.658 56.5845C122.658 64.081 122.658 71.5811 122.658 79.0777C121.017 79.0777 119.376 79.0777 117.738 79.0777C117.738 75.7986 117.738 72.516 117.738 69.2369C116.097 69.2369 114.455 69.2369 112.818 69.2369C112.814 66.6607 112.818 64.081 112.818 61.5049C114.455 61.5049 116.097 61.5049 117.738 61.5049C117.738 59.8636 117.735 58.2258 117.738 56.5845Z" fill="#00CB00"/>
<path d="M0 69.2369C1.52181 69.2369 3.04361 69.2369 4.56893 69.2369C4.56893 74.0414 4.56893 78.8423 4.56893 83.6467C3.04361 83.6467 1.52181 83.6467 0 83.6467C0 78.8423 0 74.0414 0 69.2369Z" fill="#00CB00"/>
<path d="M112.818 79.0779C114.455 79.0779 116.097 79.0779 117.738 79.0779C117.738 80.5997 117.738 82.1215 117.738 83.6468C116.097 83.6468 114.455 83.6468 112.818 83.6468C112.814 82.1215 112.818 80.5997 112.818 79.0779Z" fill="#00CB00"/>
<path d="M107.897 74.1573C109.535 74.1573 111.176 74.1573 112.818 74.1573C112.818 75.7987 112.818 77.4364 112.818 79.0777C111.176 79.0777 109.535 79.0777 107.897 79.0777C107.897 77.4364 107.894 75.7987 107.897 74.1573Z" fill="#00CB00"/>
<path d="M102.977 79.0779C104.615 79.0779 106.256 79.0779 107.897 79.0779C107.897 80.5997 107.897 82.1215 107.897 83.6468C106.256 83.6468 104.615 83.6468 102.977 83.6468C102.977 82.125 102.973 80.5997 102.977 79.0779Z" fill="#00CB00"/>
<path d="M4.56897 83.6467C7.84806 83.6467 11.1307 83.6467 14.4098 83.6467C14.4098 85.288 14.4098 86.9258 14.4098 88.5671C11.1271 88.5671 7.84806 88.5671 4.56897 88.5671C4.56897 86.9258 4.56897 85.288 4.56897 83.6467Z" fill="#00CB00"/>
<path d="M19.3302 69.2369C20.968 69.2369 22.6093 69.2369 24.2506 69.2369C24.2506 70.8782 24.2506 72.516 24.2506 74.1573C22.6093 74.1573 20.968 74.1573 19.3302 74.1573C19.3302 72.516 19.3302 70.8782 19.3302 69.2369Z" fill="#00CB00"/>
<path d="M14.4097 74.1573C16.0475 74.1573 17.6888 74.1573 19.3301 74.1573C19.3301 77.3205 19.3301 80.4836 19.3301 83.6467C17.6888 83.6467 16.0475 83.6467 14.4097 83.6467C14.4097 80.4836 14.4097 77.3205 14.4097 74.1573Z" fill="#00CB00"/>
<path d="M19.3302 83.6467C22.6093 83.6467 25.8884 83.6467 29.171 83.6467C29.171 85.288 29.171 86.9258 29.171 88.5671C25.8919 88.5671 22.6093 88.5671 19.3302 88.5671C19.3302 86.9258 19.3302 85.288 19.3302 83.6467Z" fill="#00CB00"/>
<path d="M90.6759 83.6467C94.7774 83.6467 98.8754 83.6467 102.977 83.6467C102.977 85.288 102.977 86.9258 102.977 88.5671C98.8754 88.5671 94.7774 88.5671 90.6759 88.5671C90.6759 86.9258 90.6759 85.288 90.6759 83.6467Z" fill="#00CB00"/>
<path d="M85.7555 79.0779C87.3933 79.0779 89.0346 79.0779 90.6759 79.0779C90.6759 80.5997 90.6759 82.125 90.6759 83.6468C89.0346 83.6468 87.3933 83.6468 85.7555 83.6468C85.7555 82.125 85.752 80.5997 85.7555 79.0779Z" fill="#00CB00"/>
<path d="M70.9944 83.6467C75.9148 83.6467 80.8352 83.6467 85.7555 83.6467C85.7555 85.288 85.7555 86.9258 85.7555 88.5671C80.8352 88.5671 75.9148 88.5671 70.9944 88.5671C70.9944 86.9258 70.9908 85.288 70.9944 83.6467Z" fill="#00CB00"/>
<path d="M29.1709 88.5671C43.1132 88.5671 57.052 88.5671 70.9943 88.5671C70.9943 90.2084 70.9943 91.8462 70.9943 93.4875C57.052 93.4875 43.1132 93.4875 29.1709 93.4875C29.1709 91.8462 29.1709 90.2049 29.1709 88.5671Z" fill="#00CB00"/>
<path d="M56.2331 51.6642C61.1535 51.6642 66.0739 51.6642 70.9943 51.6642C70.9943 53.3055 70.9943 54.9433 70.9943 56.5846C66.0739 56.5846 61.1535 56.5846 56.2331 56.5846C56.2331 54.9433 56.2296 53.3055 56.2331 51.6642Z" fill="#00CB00"/>
<path d="M51.3127 56.5845C52.9505 56.5845 54.5918 56.5845 56.2331 56.5845C56.2331 58.2258 56.2331 59.8636 56.2331 61.5049C54.5918 61.5049 52.9505 61.5049 51.3127 61.5049C51.3127 59.8636 51.3127 58.2258 51.3127 56.5845Z" fill="#00CB00"/>
<path d="M46.7438 61.505C48.2656 61.505 49.7874 61.505 51.3127 61.505C51.3127 67.3638 51.3127 73.2191 51.3127 79.0778C49.7874 79.0778 48.2656 79.0778 46.7438 79.0778C46.7438 73.2191 46.7438 67.3638 46.7438 61.505Z" fill="#00CB00"/>
<path d="M51.3127 79.0779C54.5918 79.0779 57.8709 79.0779 61.1535 79.0779C61.1535 80.5997 61.1535 82.1215 61.1535 83.6468C57.8709 83.6468 54.5918 83.6468 51.3127 83.6468C51.3127 82.1215 51.3127 80.5997 51.3127 79.0779Z" fill="#00CB00"/>
<path d="M66.0739 61.505C67.7117 61.505 69.353 61.505 70.9943 61.505C70.9943 64.0812 70.9943 66.6609 70.9943 69.2371C69.353 69.2371 67.7117 69.2371 66.0739 69.2371C66.0739 66.6609 66.0739 64.0812 66.0739 61.505Z" fill="#00CB00"/>
<path d="M61.1535 69.2369C62.7913 69.2369 64.4326 69.2369 66.0739 69.2369C66.0739 72.516 66.0739 75.7986 66.0739 79.0777C64.4326 79.0777 62.7913 79.0777 61.1535 79.0777C61.1535 75.7986 61.1535 72.516 61.1535 69.2369Z" fill="#00CB00"/>
<path d="M34.0913 31.9827C38.3088 31.9827 42.5263 31.9827 46.7438 31.9827C46.7438 33.624 46.7438 35.2618 46.7438 36.9031C42.5263 36.9031 38.3088 36.9031 34.0913 36.9031C34.0913 35.2618 34.0913 33.624 34.0913 31.9827Z" fill="#00CB00"/>
<path d="M29.1709 36.9031C30.8087 36.9031 32.45 36.9031 34.0913 36.9031C34.0913 38.5444 34.0913 40.1822 34.0913 41.8235C32.45 41.8235 30.8087 41.8235 29.1709 41.8235C29.1709 40.1822 29.1709 38.5444 29.1709 36.9031Z" fill="#00CB00"/>
<path d="M46.7438 36.9031C48.2656 36.9031 49.7874 36.9031 51.3127 36.9031C51.3127 38.5444 51.3127 40.1822 51.3127 41.8235C49.7874 41.8235 48.2656 41.8235 46.7438 41.8235C46.7438 40.1822 46.7438 38.5444 46.7438 36.9031Z" fill="#00CB00"/>
<path d="M34.0913 41.8234C35.7291 41.8234 37.3704 41.8234 39.0117 41.8234C39.0117 43.4647 39.0117 45.1025 39.0117 46.7438C37.3704 46.7438 35.7291 46.7438 34.0913 46.7438C34.0913 45.1025 34.0913 43.4647 34.0913 41.8234Z" fill="#00CB00"/>
<path d="M29.1709 46.7438C30.8087 46.7438 32.45 46.7438 34.0913 46.7438C34.0913 48.3851 34.0913 50.0229 34.0913 51.6642C32.45 51.6642 30.8087 51.6642 29.1709 51.6642C29.1709 50.0229 29.1709 48.3851 29.1709 46.7438Z" fill="#00CB00"/>
<path d="M34.0913 51.6642C38.3088 51.6642 42.5263 51.6642 46.7438 51.6642C46.7438 53.3055 46.7438 54.9433 46.7438 56.5846C42.5263 56.5846 38.3088 56.5846 34.0913 56.5846C34.0913 54.9433 34.0913 53.3055 34.0913 51.6642Z" fill="#00CB00"/>
<path d="M46.7438 46.7438C48.2656 46.7438 49.7874 46.7438 51.3127 46.7438C51.3127 48.3851 51.3127 50.0229 51.3127 51.6642C49.7874 51.6642 48.2656 51.6642 46.7438 51.6642C46.7438 50.0229 46.7438 48.3851 46.7438 46.7438Z" fill="#00CB00"/>
<path d="M56.2331 22.4933C59.5122 22.4933 62.7913 22.4933 66.0739 22.4933C66.0739 25.6564 66.0739 28.8195 66.0739 31.9826C62.7913 31.9826 59.5122 31.9826 56.2331 31.9826C56.2331 28.8195 56.2331 25.6564 56.2331 22.4933Z" fill="#00CB00"/>
<path d="M19.3302 22.4933C22.6093 22.4933 25.8884 22.4933 29.171 22.4933C29.171 25.6564 29.171 28.8195 29.171 31.9826C25.8884 31.9826 22.6093 31.9826 19.3302 31.9826C19.3302 28.8195 19.3302 25.6564 19.3302 22.4933Z" fill="#00CB00"/>
</svg>
