<svg width="113" height="94" viewBox="0 0 113 94" fill="none" xmlns="http://www.w3.org/2000/svg">
<path d="M46.4318 10.0142C52.8045 10.0142 59.1772 10.0188 65.5499 10.0142C65.5499 13.2006 65.5545 16.3869 65.5545 19.5733C59.1772 19.5733 52.8045 19.5733 46.4272 19.5733C46.4272 16.3869 46.4272 13.2006 46.4318 10.0142Z" fill="#00CB00"/>
<path d="M46.4317 0C52.8044 0 59.1771 0 65.5498 0C65.5453 3.33657 65.5453 6.67769 65.5498 10.0143C59.1771 10.0188 52.8044 10.0143 46.4317 10.0143C46.4317 6.67769 46.4317 3.33657 46.4317 0Z" fill="#00CB00"/>
<path d="M19.1201 10.0188C28.224 10.0097 37.3279 10.0097 46.4317 10.0142C46.4272 13.2006 46.4272 16.3869 46.4272 19.5733C37.3279 19.5778 28.224 19.5687 19.1247 19.5733C19.1247 16.3869 19.1201 13.2051 19.1201 10.0188Z" fill="#00CB00"/>
<path d="M65.5499 10.0142C74.6537 10.0051 83.7576 10.0142 92.8615 10.0142C92.8569 13.2006 92.8524 16.3869 92.8569 19.5733C83.7531 19.5687 74.6537 19.5778 65.5544 19.5733C65.5544 16.3869 65.5499 13.2006 65.5499 10.0142Z" fill="#00CB00"/>
<path d="M9.5611 19.5733C12.7475 19.5733 15.9338 19.5733 19.1247 19.5733C19.1156 22.7551 19.1111 25.9369 19.1065 29.1187C15.9247 29.1233 12.7429 29.1279 9.5611 29.137C9.5611 25.946 9.5611 22.7597 9.5611 19.5733Z" fill="#00CB00"/>
<path d="M46.4272 19.5733C52.8045 19.5733 59.1772 19.5733 65.5545 19.5733C65.5454 22.7597 65.5454 25.9506 65.5408 29.1415C59.1727 29.1096 52.8091 29.1142 46.4455 29.1506C46.4363 25.9551 46.4318 22.7642 46.4272 19.5733Z" fill="#00CB00"/>
<path d="M92.8569 19.5733C96.0433 19.5733 99.2296 19.5733 102.421 19.5733C102.416 22.7597 102.416 25.946 102.421 29.137C99.2342 29.1324 96.0569 29.1233 92.8751 29.1187C92.866 25.9369 92.8615 22.7551 92.8569 19.5733Z" fill="#00CB00"/>
<path d="M0.00202308 29.1324C3.18838 29.137 6.37473 29.137 9.56109 29.137C9.56109 44.609 9.56109 60.081 9.56109 75.5576C6.37473 75.5576 3.18838 75.5576 0.00202308 75.5667C0.00202308 60.0856 -0.00252885 44.609 0.00202308 29.1324Z" fill="#00CB00"/>
<path d="M102.421 29.1369C105.757 29.1369 109.094 29.1324 112.435 29.1278C112.439 44.6089 112.435 60.0855 112.435 75.5621C109.094 75.5576 105.757 75.553 102.421 75.5576C102.421 60.0855 102.421 44.6089 102.421 29.1369Z" fill="#00CB00"/>
<path d="M9.5611 75.5576C12.7429 75.5621 15.9247 75.5667 19.1111 75.5758C19.1111 78.7576 19.1156 81.9394 19.1247 85.1212C15.9338 85.1166 12.7475 85.1166 9.5611 85.1212C9.5611 81.9303 9.5611 78.7439 9.5611 75.5576Z" fill="#00CB00"/>
<path d="M92.8751 75.5758C96.0524 75.5667 99.2342 75.5621 102.421 75.5576C102.416 78.7439 102.416 81.9303 102.421 85.1212C99.2296 85.1166 96.0433 85.1166 92.8569 85.1212C92.8615 81.9394 92.866 78.7576 92.8751 75.5758Z" fill="#00CB00"/>
<path d="M19.1247 85.1212C43.7006 85.1212 68.2765 85.1212 92.8569 85.1212C92.8524 87.8478 92.8524 90.5835 92.866 93.3147C68.281 93.3147 43.7006 93.3147 19.1201 93.3147C19.1201 90.579 19.1292 87.8524 19.1247 85.1212Z" fill="#00CB00"/>
<path d="M19.1202 56.4394C25.0331 56.4485 30.9461 56.4485 36.8636 56.4439C36.8682 59.6303 36.8773 62.8167 36.8864 66.003C40.0636 65.9985 43.2409 65.9985 46.4181 66.003C46.4272 62.8167 46.4363 59.6303 46.4454 56.4439C52.809 56.4439 59.1726 56.4439 65.5408 56.4439C65.5453 59.6303 65.5545 62.8167 65.559 66.003C68.2811 65.9985 71.0077 65.9985 73.7343 66.003C73.7388 62.8167 73.7479 59.6303 73.7525 56.4439C80.1206 56.4439 86.4934 56.4439 92.8615 56.4439C92.857 59.6257 92.857 62.8076 92.8615 65.9894C89.6797 65.9985 86.4934 66.0076 83.3161 66.0167C83.307 69.1939 83.2979 72.3757 83.2888 75.5621C64.635 75.5621 45.9811 75.5621 27.3227 75.5621C27.3182 72.3803 27.3091 69.1985 27.3 66.0167C24.5734 66.0076 21.8468 65.9985 19.1156 65.9939C19.1202 62.8076 19.1202 59.6212 19.1202 56.4394Z" fill="#00CB00"/>
<path d="M27.3136 37.3259C33.6863 37.3259 40.059 37.3259 46.4317 37.3259C46.4272 40.5122 46.4272 43.6986 46.4317 46.8849C40.059 46.8849 33.6863 46.8849 27.3136 46.8849C27.3136 43.6986 27.3136 40.5122 27.3136 37.3259Z" fill="#00CB00"/>
<path d="M65.5499 37.3213C71.4674 37.3304 77.3849 37.3304 83.3024 37.3258C83.2979 40.5122 83.2979 43.6986 83.3024 46.8895C77.3849 46.8804 71.4674 46.8804 65.5499 46.8849C65.5499 43.6986 65.5499 40.5076 65.5499 37.3213Z" fill="#00CB00"/>
</svg>
