<svg width="128" height="128" viewBox="0 0 128 128" fill="none" xmlns="http://www.w3.org/2000/svg">
<path d="M7.96663 0.000621025C13.275 -0.000776281 18.5848 0.000621025 23.8931 0.000621025C23.8959 2.6555 23.8959 5.31038 23.8945 7.96526C18.5848 7.96526 13.275 7.96526 7.96524 7.96526C7.96244 5.31038 7.96384 2.6555 7.96663 0.000621025Z" fill="#00CB00"/>
<path d="M0.000621025 7.96667C2.6555 7.96388 5.31038 7.96388 7.96526 7.96527C7.96526 13.2289 7.96526 18.4912 7.96526 23.7548C5.31038 23.7576 2.6555 23.7562 0.000621025 23.7534C-0.000776281 18.4912 0.000621025 13.2289 0.000621025 7.96667Z" fill="#00CB00"/>
<path d="M23.8945 7.96527C26.5494 7.96247 29.2043 7.96387 31.8592 7.96667C31.855 10.574 31.8634 13.1814 31.8592 15.7902C34.514 15.7846 37.1689 15.7944 39.8238 15.7902C39.8196 18.4451 39.828 21.0999 39.8238 23.7548C42.4787 23.7506 45.1336 23.759 47.7898 23.7548C47.7898 26.4097 47.7885 29.0646 47.7871 31.7195C42.4787 31.7223 37.1689 31.7167 31.8606 31.7195C31.8592 34.3729 31.8592 37.0278 31.8578 39.6813C29.2043 39.6841 26.5508 39.6841 23.8973 39.6855C23.8931 42.339 23.8945 44.9925 23.8931 47.6473C21.2382 47.6487 18.5848 47.6501 15.9299 47.6487C15.9285 42.339 15.9313 37.0292 15.9299 31.7195C13.275 31.7237 10.6201 31.7153 7.96664 31.7195C7.96385 29.0646 7.96385 26.4097 7.96524 23.7548C13.275 23.7534 18.5848 23.7576 23.8945 23.7534C23.8959 18.4912 23.8931 13.2289 23.8945 7.96527Z" fill="#00CB00"/>
<path d="M47.7899 15.7902C58.3619 15.7902 68.9339 15.7902 79.5059 15.7902C79.5087 18.445 79.5087 21.0999 79.5073 23.7548C68.9339 23.7548 58.3619 23.7548 47.7899 23.7548C47.7857 21.0999 47.7885 18.445 47.7899 15.7902Z" fill="#00CB00"/>
<path d="M103.403 0.000621025C108.665 -0.000776281 113.927 0.000621025 119.189 0.000621025C119.192 2.6555 119.192 5.31038 119.191 7.96526C113.927 7.96526 108.665 7.96526 103.401 7.96526C103.398 5.31038 103.4 2.6555 103.403 0.000621025Z" fill="#00CB00"/>
<path d="M87.4719 7.96528C92.7817 7.96528 98.0915 7.96388 103.401 7.96528C103.401 13.2289 103.398 18.4912 103.401 23.7534C108.665 23.7576 113.927 23.7534 119.191 23.7548C119.191 29.0646 119.191 34.3744 119.191 39.6841C116.582 39.6799 113.973 39.6883 111.366 39.6841C111.37 42.339 111.36 44.9939 111.366 47.6488C108.711 47.6502 106.056 47.6488 103.403 47.6474C103.401 44.9925 103.4 42.339 103.4 39.6855C98.0901 39.6813 92.7817 39.6869 87.4733 39.6841C87.4705 37.0292 87.472 34.3758 87.4706 31.7223C84.8157 31.7181 82.1622 31.7195 79.5087 31.7181C79.5059 29.0632 79.5045 26.4097 79.5073 23.7548C82.1608 23.759 84.8157 23.7506 87.4719 23.7548C87.4733 18.4912 87.4706 13.2289 87.4719 7.96528Z" fill="#00CB00"/>
<path d="M119.191 7.96527C121.844 7.96247 124.499 7.96387 127.155 7.96667C127.155 13.2289 127.155 18.4912 127.155 23.7534C124.499 23.7562 121.844 23.7562 119.191 23.7548C119.191 18.4912 119.191 13.2289 119.191 7.96527Z" fill="#00CB00"/>
<path d="M7.96526 47.6501C10.6201 47.6473 13.275 47.6459 15.9299 47.6487C15.9299 58.2222 15.9299 68.7942 15.9299 79.3676C13.275 79.3704 10.6201 79.3676 7.96526 79.3662C7.96526 68.7942 7.96526 58.2222 7.96526 47.6501Z" fill="#00CB00"/>
<path d="M111.366 47.6487C113.973 47.6459 116.582 47.6487 119.191 47.6501C119.191 58.2221 119.191 68.7941 119.191 79.3662C116.582 79.3676 113.973 79.369 111.366 79.3676C111.366 68.7941 111.366 58.2221 111.366 47.6487Z" fill="#00CB00"/>
<path d="M15.9299 79.3675C18.5848 79.3647 21.2382 79.3675 23.8931 79.3689C23.8945 82.0224 23.8959 84.6773 23.8959 87.3322C21.2396 87.3336 18.5862 87.3322 15.9313 87.3308C15.9285 84.6759 15.9271 82.021 15.9299 79.3675Z" fill="#00CB00"/>
<path d="M55.6148 79.3676C60.9231 79.3662 66.2329 79.3662 71.5413 79.369C71.5413 82.0224 71.5413 84.6759 71.5455 87.3322C82.1636 87.3336 92.7817 87.3322 103.401 87.3322C103.404 89.9857 103.401 92.6406 103.4 95.2968C100.745 95.2913 98.0901 95.301 95.4366 95.2968C95.4408 97.9517 95.4324 100.607 95.4366 103.261C92.7817 103.261 90.1268 103.261 87.4719 103.261C87.4733 100.607 87.4706 97.9517 87.4706 95.2968C84.8157 95.2954 82.1622 95.2954 79.5087 95.2968C79.5073 97.9517 79.5045 100.607 79.5073 103.261C76.8524 103.263 74.1975 103.26 71.5441 103.26C71.5427 100.605 71.5413 97.9517 71.5413 95.2982C66.2329 95.2954 60.9231 95.2954 55.6148 95.2968C55.6134 97.9503 55.6134 100.605 55.612 103.26C53.0032 103.261 50.3958 103.261 47.7885 103.261C47.7899 100.607 47.7871 97.9517 47.7871 95.2968C45.1336 95.2954 42.4787 95.2954 39.8252 95.2968C39.8238 97.9517 39.821 100.607 39.8238 103.261C37.1689 103.261 34.5141 103.261 31.8592 103.261C31.8634 100.607 31.8536 97.9517 31.8592 95.2968C29.2043 95.301 26.5494 95.2913 23.8959 95.2968C23.8931 92.6406 23.8917 89.9857 23.8959 87.3322C34.468 87.3308 45.04 87.3336 55.612 87.3308C55.6134 84.6759 55.6134 82.0224 55.6148 79.3676Z" fill="#00CB00"/>
<path d="M103.403 79.3689C106.056 79.3675 108.711 79.3647 111.366 79.3675C111.367 82.021 111.366 84.6759 111.364 87.3308C108.71 87.3322 106.055 87.3336 103.401 87.3322C103.398 84.6773 103.401 82.0224 103.403 79.3689Z" fill="#00CB00"/>
<path d="M23.8959 103.263C26.5494 103.259 29.2043 103.26 31.8592 103.262C31.8592 105.916 31.8606 108.571 31.8592 111.226C29.2043 111.226 26.5494 111.228 23.8959 111.225C23.8931 108.57 23.8931 105.916 23.8959 103.263Z" fill="#00CB00"/>
<path d="M39.8238 103.261C42.4787 103.261 45.1336 103.26 47.7885 103.261C47.7857 105.916 47.7885 108.57 47.7899 111.226C58.3619 111.226 68.9339 111.226 79.5059 111.226C79.5059 108.57 79.5087 105.916 79.5073 103.261C82.1622 103.26 84.8171 103.261 87.4719 103.261C87.4691 105.915 87.4719 108.57 87.4733 111.225C90.1268 111.225 92.7817 111.228 95.4366 111.226C95.438 113.88 95.4366 116.534 95.4352 119.191C90.1254 119.192 84.8171 119.189 79.5073 119.191C79.5115 121.844 79.5017 124.499 79.5073 127.154C76.8524 127.157 74.1975 127.155 71.5427 127.154C71.5468 124.499 71.5385 121.846 71.5427 119.191C66.2329 119.189 60.9231 119.189 55.6134 119.191C55.6176 121.844 55.6078 124.499 55.6134 127.154C53.0046 127.157 50.3972 127.155 47.7885 127.154C47.7927 124.499 47.7829 121.844 47.7885 119.191C42.4787 119.188 37.1689 119.192 31.8606 119.191C31.8578 116.534 31.8578 113.88 31.8592 111.226C34.5141 111.226 37.1675 111.225 39.8224 111.225C39.8224 108.57 39.8252 105.915 39.8238 103.261Z" fill="#00CB00"/>
<path d="M95.4366 103.262C98.0901 103.259 100.745 103.26 103.4 103.263C103.401 105.916 103.403 108.57 103.4 111.225C100.745 111.228 98.0901 111.226 95.4366 111.226C95.4352 108.571 95.4366 105.916 95.4366 103.262Z" fill="#00CB00"/>
<path d="M31.8606 47.6502C34.5141 47.646 37.1675 47.6474 39.8224 47.6502C39.8252 50.3037 39.8252 52.9585 39.8238 55.6134C37.1689 55.6148 34.5141 55.6134 31.8606 55.612C31.8578 52.9571 31.8578 50.3037 31.8606 47.6502Z" fill="#00CB00"/>
<path d="M39.8238 55.6134C42.4787 55.6106 45.1322 55.612 47.7885 55.6148C47.7885 63.5319 47.7885 71.4491 47.7885 79.3676C42.4787 79.3676 37.1689 79.3676 31.8592 79.3676C31.8578 74.1039 31.8592 68.8403 31.8592 63.578C34.5141 63.5822 37.1689 63.5725 39.8238 63.578C39.8196 60.9232 39.8266 58.2683 39.8238 55.6134Z" fill="#00CB00"/>
<path d="M79.5087 47.6502C82.1622 47.646 84.8156 47.6474 87.4705 47.6502C87.4733 50.3037 87.4733 52.9585 87.4719 55.6134C84.817 55.6148 82.1622 55.6134 79.5087 55.612C79.5059 52.9571 79.5045 50.3037 79.5087 47.6502Z" fill="#00CB00"/>
<path d="M87.472 55.6134C90.1254 55.6106 92.7803 55.612 95.4366 55.6148C95.4366 63.5319 95.4366 71.4491 95.4366 79.3676C90.1268 79.3676 84.8171 79.3676 79.5073 79.3676C79.5059 74.1039 79.5059 68.8403 79.5073 63.578C82.1622 63.5822 84.8171 63.5725 87.472 63.578C87.4678 60.9232 87.4748 58.2683 87.472 55.6134Z" fill="#00CB00"/>
</svg>
