<svg width="110" height="128" viewBox="0 0 110 128" fill="none" xmlns="http://www.w3.org/2000/svg">
<path d="M47.3792 0.0221674C52.6087 -0.0210963 57.8382 0.0113504 63.0677 0.0167583C63.1704 2.46116 63.1326 4.91097 63.0893 7.36077C65.7825 7.48516 68.4756 7.52842 71.1688 7.52842C71.1796 10.4433 71.1526 13.3582 71.1959 16.2731C68.2864 16.3218 65.3769 16.311 62.4674 16.2352C62.3214 13.5421 62.2998 10.8489 62.3052 8.15574C57.5191 8.28013 52.7277 8.48022 47.9524 8.20442C47.9849 10.7029 47.9632 13.2014 47.9524 15.6999C50.2887 15.689 52.6195 15.6836 54.9557 15.6944C55.0423 18.074 55.0369 20.4589 55.0693 22.8384C63.3219 23.0439 71.5744 23.2494 79.827 23.2764C79.827 26.1264 79.8324 28.9818 79.8324 31.8372C84.6995 31.8805 89.5667 31.8264 94.4339 31.9183C94.488 34.6223 94.488 37.3317 94.4826 40.0357C96.9918 40.0357 99.5011 40.0357 102.016 40.0357C102.07 42.5396 102.021 45.0381 102.005 47.542C104.639 47.5798 107.278 47.4176 109.901 47.6988C109.419 58.585 109.917 69.4983 109.279 80.3737C106.851 80.3791 104.422 80.325 102 80.2439C102 82.7045 102 85.1652 102 87.6312C99.4741 87.6474 96.954 87.6474 94.4285 87.6528C94.4285 90.1675 94.4285 92.6876 94.4285 95.2023C91.903 95.251 89.3828 95.2564 86.8573 95.2618C86.8573 97.9442 86.8573 100.621 86.8573 103.303C83.9911 103.32 81.1303 103.336 78.2641 103.374C78.3127 105.872 78.356 108.365 78.4263 110.864C81.0546 110.896 83.6828 110.869 86.3165 110.88C86.3165 113.584 86.3165 116.288 86.3165 118.992C83.4287 119.003 80.5462 119.03 77.6638 118.997C77.6638 116.488 77.6638 113.984 77.6638 111.475C75.5006 111.475 73.3374 111.464 71.1796 111.453C71.1688 116.667 71.1742 121.885 71.1742 127.104C67.9403 127.25 64.7009 127.034 61.4669 127.077C61.4237 124.562 61.4453 122.047 61.4345 119.538C57.1081 119.533 52.7871 119.527 48.4608 119.538C48.4608 122.058 48.4608 124.584 48.4608 127.104C45.216 127.001 41.9712 127.266 38.7318 127.099C38.7264 121.88 38.7264 116.667 38.721 111.453C36.428 111.464 34.1297 111.48 31.8367 111.469C31.7448 113.979 31.7826 116.494 31.7285 119.008C29.0137 119.019 26.2989 119.003 23.5841 118.992C23.5841 116.288 23.5841 113.584 23.5841 110.875C26.1097 110.869 28.6298 110.88 31.1553 110.88C31.1553 108.376 31.1553 105.867 31.1553 103.363C28.6244 103.341 26.0934 103.325 23.5625 103.303C23.5246 100.783 23.5463 98.2578 23.5571 95.7377C20.8585 95.7377 18.1654 95.7377 15.4722 95.7377C15.4722 93.0446 15.4722 90.346 15.4722 87.6528C12.9467 87.6474 10.4266 87.6474 7.90103 87.6312C7.90103 85.1652 7.90103 82.7045 7.90103 80.2385C5.47827 80.325 3.05009 80.3791 0.621913 80.3737C0.129788 74.5007 0.356922 68.5952 0.270394 62.7059C0.340698 57.6981 0.0378558 52.7012 0 47.6988C2.66072 47.4122 5.34307 47.5852 8.0146 47.5365C7.89022 45.1787 7.83073 42.8262 7.85777 40.4683C10.3779 40.2953 12.9034 40.3602 15.4289 40.3223C15.4019 37.521 15.4127 34.7143 15.4668 31.9129C20.5719 31.8156 25.677 31.8967 30.7821 31.8156C30.966 28.7709 30.9011 25.7208 31.1337 22.6815C36.3577 22.6383 41.5818 22.7032 46.8059 22.7086C46.7951 20.5832 46.7897 18.4579 46.8222 16.3326C44.1074 16.311 41.398 16.338 38.6832 16.2785C38.575 13.3744 38.6507 10.4649 38.6994 7.56087C41.571 7.5122 44.4372 7.59332 47.3089 7.58791C47.2927 5.06239 47.3251 2.54228 47.3792 0.0221674ZM32.2693 33.0702C32.2639 35.5741 32.2964 38.078 32.2477 40.5819C26.8938 40.6847 21.5345 40.663 16.1752 40.6847C16.1049 42.9993 16.0725 45.3139 16.0671 47.6285C13.6551 47.9421 11.2269 48.0665 8.79876 48.1422C8.93936 58.5796 9.02589 69.017 9.11242 79.4544C11.5893 79.4598 14.0715 79.4435 16.5538 79.4976C16.5538 82.0123 16.5538 84.5324 16.5538 87.0471C19.0793 87.058 21.5994 87.0742 24.1249 87.085C24.1249 89.7727 24.1195 92.4659 24.1249 95.1537C29.3544 95.2023 34.5785 95.1969 39.808 95.1969C39.7972 100.41 39.8134 105.623 39.8946 110.837C49.9317 110.869 59.9689 110.864 70.0061 110.837C70.0872 105.623 70.1034 100.41 70.0926 95.1969C75.3167 95.2023 80.5408 95.1915 85.7649 95.1645C85.8785 92.4713 85.7379 89.7782 85.7757 87.085C88.3067 87.0742 90.843 87.058 93.3793 87.0471C93.3415 84.527 93.3361 82.0123 93.3469 79.4976C95.8291 79.4435 98.306 79.4598 100.788 79.4544C100.88 69.0224 100.956 58.5958 101.107 48.1693C98.5169 48.1476 95.9319 48.1422 93.3469 48.1476C93.3469 45.66 93.3523 43.1777 93.3307 40.6901C88.1066 40.6522 82.8771 40.6901 77.653 40.5819C77.6043 38.0564 77.6367 35.5309 77.6367 33.0053C62.5107 33.0053 47.39 32.9891 32.2693 33.0702Z" fill="#00CB00"/>
<path d="M23.5787 48.126C28.9434 47.6068 34.3568 47.9692 39.7377 47.7637C39.9973 50.5866 39.7485 53.4258 39.8405 56.2542C36.9418 56.2704 34.0485 56.2596 31.1553 56.2596C31.1553 58.7797 31.1715 61.2998 31.1769 63.8253C34.0594 63.8307 36.9472 63.8199 39.8297 63.847C39.8891 66.5455 39.8783 69.2495 39.8188 71.9535C34.4001 71.9319 28.9867 71.9535 23.5733 71.9427C23.5409 64.0038 23.5679 56.0649 23.5787 48.126Z" fill="#00CB00"/>
<path d="M70.1413 47.7745C75.3708 47.9043 80.6057 47.7367 85.8298 48.0071C85.819 50.7597 85.8677 53.5124 85.7974 56.265C83.4503 56.2704 81.0979 56.2759 78.7454 56.2759C78.7454 58.7797 78.7454 61.2836 78.7454 63.7875C81.2763 63.7767 83.8018 63.7821 86.3274 63.8308C86.349 66.5348 86.3436 69.2387 86.322 71.9427C80.9086 71.9535 75.4952 71.9319 70.0818 71.9535C70.0981 63.8903 69.9791 55.827 70.1413 47.7745Z" fill="#00CB00"/>
<path d="M31.1553 79.5031C36.7472 79.4165 42.339 79.5625 47.9254 79.5625C47.8768 82.0556 47.8173 84.5595 47.8822 87.058C52.5925 87.1499 57.3082 87.1553 62.024 87.0526C62.0889 84.5433 62.0024 82.034 61.9915 79.5247C67.578 79.5842 73.159 79.4057 78.7454 79.5031C78.7454 82.2179 78.7454 84.9327 78.7454 87.6529C73.5105 87.7773 68.2756 87.6096 63.0461 87.761C62.992 90.2433 63.0299 92.7255 63.0569 95.2078C57.6489 95.3051 52.2356 95.3051 46.8222 95.2078C46.7952 92.7255 46.8438 90.2379 46.833 87.7556C41.6089 87.615 36.3794 87.7718 31.1553 87.6475C31.1553 84.9327 31.1553 82.2179 31.1553 79.5031Z" fill="#00CB00"/>
</svg>
