<svg width="89" height="103" viewBox="0 0 89 103" fill="none" xmlns="http://www.w3.org/2000/svg">
<path d="M61.3292 0C63.6327 0 65.9361 0 68.2395 0C68.2367 2.30344 68.2395 4.60689 68.2395 6.90745C70.4451 6.91033 72.6535 6.91033 74.862 6.91321C74.862 9.11876 74.8591 11.3243 74.8648 13.5327C77.1654 13.5327 79.4688 13.5327 81.7723 13.5327C81.7694 15.8362 81.7723 18.1396 81.7723 20.4431C84.0757 20.4431 86.3792 20.4431 88.6826 20.4431C88.6826 34.0708 88.6826 47.6986 88.6826 61.3292C86.3763 61.3292 84.0757 61.3292 81.7723 61.3292C81.7694 63.6327 81.7723 65.9361 81.7723 68.2395C77.2604 68.2424 72.7485 68.2367 68.2395 68.2395C68.2395 70.4451 68.2395 72.6535 68.2395 74.8619C65.9332 74.8591 63.6327 74.8619 61.3292 74.8619C61.3263 79.4688 61.3321 84.0757 61.3292 88.6826C59.0229 88.6797 56.7223 88.6826 54.4189 88.6826C54.416 93.1945 54.4218 97.7035 54.4189 102.215C52.2105 102.212 50.0049 102.212 47.7965 102.215C47.7965 99.909 47.7965 97.6085 47.7965 95.305C43.1896 95.3021 38.5827 95.3079 33.9758 95.305C33.9729 93.0966 33.9729 90.891 33.9758 88.6855C31.7674 88.6797 29.5618 88.6826 27.3534 88.6826C27.3505 84.0728 27.3563 79.4688 27.3534 74.8619C25.05 74.8619 22.7465 74.8619 20.4431 74.8619C20.4431 72.6535 20.4431 70.448 20.4402 68.2424C15.8362 68.2367 11.2293 68.2395 6.6224 68.2395C6.6224 65.9332 6.6224 63.6327 6.6224 61.3321C4.41398 61.3263 2.20555 61.3292 0 61.3263C0 47.6986 0 34.0737 0 20.4459C2.20555 20.4431 4.41398 20.4431 6.6224 20.4402C6.6224 18.1396 6.6224 15.8362 6.6224 13.5327C8.92585 13.5327 11.2293 13.5327 13.5299 13.5327C13.5327 11.3243 13.5327 9.11588 13.5356 6.91033C29.4639 6.91033 45.3951 6.91033 61.3263 6.91033C61.3263 4.60689 61.3292 2.30344 61.3292 0ZM13.5327 27.3534C13.5327 34.1687 13.5299 40.9812 13.5327 47.7965C33.9758 47.7965 54.4189 47.7965 74.862 47.7965C74.862 40.9812 74.862 34.1687 74.862 27.3534C54.4189 27.3534 33.9758 27.3534 13.5327 27.3534ZM33.9758 68.2395C33.9758 70.4451 33.9758 72.6535 33.9758 74.8619C36.2793 74.8619 38.5798 74.8591 40.8861 74.8619C40.8861 77.1654 40.8861 79.466 40.8861 81.7723C43.1896 81.7723 45.4902 81.7694 47.7965 81.7723C47.7965 79.4688 47.7965 77.1654 47.7965 74.8648C50.0049 74.8591 52.2105 74.8619 54.4189 74.8619C54.4189 72.6535 54.4189 70.4451 54.4189 68.2395C47.6036 68.2395 40.7911 68.2367 33.9758 68.2395Z" fill="#00CB00"/>
<path d="M20.443 33.973C24.9549 33.9759 29.4639 33.9759 33.9757 33.9759C33.9729 36.2793 33.9757 38.5828 33.9757 40.8891C29.4639 40.8834 24.9549 40.8834 20.443 40.8862C20.443 38.5828 20.443 36.2793 20.443 33.973Z" fill="#00CB00"/>
<path d="M54.4189 33.9759C59.0258 33.9759 63.6327 33.9759 68.2396 33.9759C68.2396 36.2793 68.2396 38.5828 68.2396 40.8862C63.6327 40.8833 59.0258 40.8833 54.4189 40.8862C54.416 38.5828 54.416 36.2793 54.4189 33.9759Z" fill="#00CB00"/>
<path d="M13.5327 74.862C15.8362 74.8591 18.1396 74.8591 20.443 74.862C20.443 79.4689 20.443 84.0758 20.443 88.6827C18.1396 88.6798 15.8362 88.6827 13.5327 88.6827C13.5327 84.0758 13.5327 79.4689 13.5327 74.862Z" fill="#00CB00"/>
<path d="M68.2396 74.862C72.7486 74.862 77.2605 74.862 81.7724 74.862C81.7724 77.1654 81.7724 79.4689 81.7724 81.7752C77.2605 81.7695 72.7515 81.7695 68.2425 81.7723C68.2367 79.466 68.2396 77.1654 68.2396 74.862Z" fill="#00CB00"/>
<path d="M27.3535 95.305C29.5619 95.3021 31.7674 95.3021 33.9759 95.305C33.9787 97.6056 33.9759 99.909 33.9759 102.215C31.7674 102.212 29.5619 102.215 27.3535 102.215C27.3506 99.909 27.3535 97.6085 27.3535 95.305Z" fill="#00CB00"/>
</svg>
