<svg width="103" height="96" viewBox="0 0 103 96" fill="none" xmlns="http://www.w3.org/2000/svg">
<path d="M0 3.05176e-05C4.23587 3.05176e-05 8.46886 3.05176e-05 12.7047 3.05176e-05C12.7047 2.11652 12.7047 4.2359 12.7047 6.3524C16.9406 6.3524 21.1736 6.3524 25.4095 6.3524C25.4095 8.46889 25.4095 10.5883 25.4095 12.7048C23.293 12.7048 21.1736 12.7048 19.0571 12.7048C19.0571 16.9406 19.0571 21.1736 19.0571 25.4095C16.9406 25.4095 14.8212 25.4095 12.7047 25.4095C12.7047 21.1736 12.7047 16.9406 12.7047 12.7048C8.46886 12.7048 4.23587 12.7048 0 12.7048C0 8.46889 0 4.2359 0 3.05176e-05Z" fill="#00CB00"/>
<path d="M25.4094 3.05176e-05C29.6453 3.05176e-05 33.8783 3.05176e-05 38.1142 3.05176e-05C38.1142 2.11652 38.1142 4.2359 38.1142 6.3524C33.8783 6.3524 29.6453 6.3524 25.4094 6.3524C25.4094 4.2359 25.4094 2.11652 25.4094 3.05176e-05Z" fill="#00CB00"/>
<path d="M38.1143 6.35245C40.3289 6.35245 42.5407 6.35245 44.7554 6.35245C44.7554 8.46894 44.7554 10.5854 44.7554 12.7048C42.5407 12.7048 40.3289 12.7048 38.1143 12.7048C38.1143 10.5854 38.1143 8.46894 38.1143 6.35245Z" fill="#00CB00"/>
<path d="M44.7552 3.05176e-05C51.1076 3.05176e-05 57.46 3.05176e-05 63.8123 3.05176e-05C63.8123 2.11652 63.8123 4.2359 63.8123 6.3524C57.46 6.3524 51.1076 6.3524 44.7552 6.3524C44.7552 4.2359 44.7552 2.11652 44.7552 3.05176e-05Z" fill="#00CB00"/>
<path d="M63.8124 6.35245C65.9289 6.35245 68.0483 6.35245 70.1647 6.35245C70.1647 8.46894 70.1647 10.5883 70.1647 12.7048C68.0483 12.7048 65.9289 12.7048 63.8124 12.7048C63.8124 10.5883 63.8124 8.46894 63.8124 6.35245Z" fill="#00CB00"/>
<path d="M70.1647 3.05176e-05C74.4959 3.05176e-05 78.8271 3.05176e-05 83.1582 3.05176e-05C83.1582 2.11652 83.1582 4.2359 83.1582 6.3524C78.8271 6.3524 74.4959 6.3524 70.1647 6.3524C70.1647 4.2359 70.1647 2.11652 70.1647 3.05176e-05Z" fill="#00CB00"/>
<path d="M89.5106 3.05176e-05C93.7465 3.05176e-05 97.9795 3.05176e-05 102.215 3.05176e-05C102.215 4.2359 102.215 8.46889 102.215 12.7048C97.9795 12.7048 93.7465 12.7048 89.5106 12.7048C89.5106 14.8213 89.5106 16.9406 89.5106 19.0571C87.3941 19.0571 85.2748 19.0571 83.1583 19.0571C83.1583 14.8213 83.1583 10.5883 83.1583 6.3524C85.2748 6.3524 87.3913 6.3524 89.5106 6.3524C89.5106 4.2359 89.5106 2.11652 89.5106 3.05176e-05Z" fill="#00CB00"/>
<path d="M89.5106 19.0571C91.6271 19.0571 93.7436 19.0571 95.863 19.0571C95.863 21.1736 95.863 23.293 95.863 25.4095C93.7465 25.4095 91.6271 25.4095 89.5106 25.4095C89.5106 23.2901 89.5106 21.1736 89.5106 19.0571Z" fill="#00CB00"/>
<path d="M6.35242 25.4095C8.46891 25.4095 10.5883 25.4095 12.7048 25.4095C12.7048 29.7407 12.7048 34.0718 12.7048 38.403C10.5883 38.403 8.46891 38.403 6.35242 38.403C6.35242 34.0718 6.35242 29.7407 6.35242 25.4095Z" fill="#00CB00"/>
<path d="M95.863 25.4095C97.9795 25.4095 100.096 25.4095 102.215 25.4095C102.215 31.8572 102.215 38.3077 102.215 44.7553C100.096 44.7553 97.9795 44.7553 95.863 44.7553C95.863 38.3077 95.863 31.8572 95.863 25.4095Z" fill="#00CB00"/>
<path d="M12.7047 38.403C14.8212 38.403 16.9377 38.403 19.0571 38.403C19.0571 40.5195 19.0571 42.636 19.0571 44.7554C16.9406 44.7554 14.8212 44.7554 12.7047 44.7554C12.7047 42.6389 12.7047 40.5195 12.7047 38.403Z" fill="#00CB00"/>
<path d="M6.35237 44.7554C8.46886 44.7554 10.5882 44.7554 12.7047 44.7554C12.7047 46.8719 12.7047 48.9912 12.7047 51.1077C14.8212 51.1077 16.9406 51.1077 19.0571 51.1077C19.0571 53.2242 19.0571 55.3436 19.0571 57.4601C16.9406 57.4601 14.8212 57.4601 12.7047 57.4601C12.7047 59.5766 12.7047 61.696 12.7047 63.8125C8.46886 63.8125 4.23587 63.8125 0 63.8125C0 59.5766 0 55.3436 0 51.1077C2.11649 51.1077 4.23587 51.1077 6.35237 51.1077C6.35237 48.9912 6.35237 46.8719 6.35237 44.7554Z" fill="#00CB00"/>
<path d="M89.5106 44.7554C91.6271 44.7554 93.7465 44.7554 95.863 44.7554C95.863 46.8719 95.863 48.9912 95.863 51.1077C97.9795 51.1077 100.099 51.1077 102.215 51.1077C102.215 55.3436 102.215 59.5766 102.215 63.8125C100.099 63.8125 97.9795 63.8125 95.863 63.8125C95.863 68.0483 95.863 72.2813 95.863 76.5172C93.7436 76.5172 91.6271 76.5172 89.5106 76.5172C89.5106 72.2813 89.5106 68.0483 89.5106 63.8125C87.3913 63.8125 85.2748 63.8125 83.1583 63.8125C83.1583 61.696 83.1583 59.5766 83.1583 57.4601C85.2748 57.4601 87.3941 57.4601 89.5106 57.4601C89.5106 53.2242 89.5106 48.9912 89.5106 44.7554Z" fill="#00CB00"/>
<path d="M12.7047 63.8125C14.8212 63.8125 16.9406 63.8125 19.0571 63.8125C19.0571 68.0484 19.0571 72.2813 19.0571 76.5172C16.9406 76.5172 14.8212 76.5172 12.7047 76.5172C12.7047 72.2813 12.7047 68.0484 12.7047 63.8125Z" fill="#00CB00"/>
<path d="M19.0571 76.5171C23.293 76.5171 27.526 76.5171 31.7619 76.5171C31.7619 78.7318 31.7619 80.9436 31.7619 83.1582C27.526 83.1582 23.293 83.1582 19.0571 83.1582C19.0571 80.9436 19.0571 78.7318 19.0571 76.5171Z" fill="#00CB00"/>
<path d="M76.5172 76.5171C80.8483 76.5171 85.1795 76.5171 89.5106 76.5171C89.5106 78.7318 89.5106 80.9436 89.5106 83.1582C85.1795 83.1582 80.8483 83.1582 76.5172 83.1582C76.5172 80.9436 76.5172 78.7318 76.5172 76.5171Z" fill="#00CB00"/>
<path d="M31.7618 83.1583C38.2094 83.1583 44.66 83.1583 51.1076 83.1583C51.1076 85.2748 51.1076 87.3913 51.1076 89.5107C46.7765 89.5107 42.4453 89.5107 38.1142 89.5107C38.1142 91.6271 38.1142 93.7465 38.1142 95.863C33.8783 95.863 29.6453 95.863 25.4094 95.863C25.4094 93.7465 25.4094 91.6271 25.4094 89.5107C27.5259 89.5107 29.6453 89.5107 31.7618 89.5107C31.7618 87.3913 31.7618 85.2748 31.7618 83.1583Z" fill="#00CB00"/>
<path d="M51.1077 76.5171C53.2242 76.5171 55.3435 76.5171 57.46 76.5171C57.46 78.7318 57.46 80.9436 57.46 83.1582C55.3435 83.1582 53.2242 83.1582 51.1077 83.1582C51.1077 80.9436 51.1077 78.7318 51.1077 76.5171Z" fill="#00CB00"/>
<path d="M57.46 83.1583C63.8124 83.1583 70.1648 83.1583 76.5171 83.1583C76.5171 85.2748 76.5171 87.3913 76.5171 89.5107C78.7318 89.5107 80.9436 89.5107 83.1582 89.5107C83.1582 91.6271 83.1582 93.7437 83.1582 95.863C78.8271 95.863 74.4959 95.863 70.1648 95.863C70.1648 93.7437 70.1648 91.6271 70.1648 89.5107C65.9289 89.5107 61.6959 89.5107 57.46 89.5107C57.46 87.3913 57.46 85.2748 57.46 83.1583Z" fill="#00CB00"/>
<path d="M38.1142 19.0571C48.7977 19.0571 59.4812 19.0571 70.1647 19.0571C70.1647 21.1736 70.1647 23.293 70.1647 25.4095C72.2812 25.4095 74.4006 25.4095 76.5171 25.4095C76.5171 27.526 76.5171 29.6454 76.5171 31.7619C78.7318 31.7619 80.9436 31.7619 83.1582 31.7619C83.1582 38.2095 83.1582 44.6601 83.1582 51.1077C80.9436 51.1077 78.7318 51.1077 76.5171 51.1077C76.5171 53.2242 76.5171 55.3436 76.5171 57.4601C74.4006 57.4601 72.2812 57.4601 70.1647 57.4601C70.1619 59.5766 70.1647 61.696 70.1647 63.8125C59.4812 63.8125 48.7977 63.8125 38.1142 63.8125C38.1142 61.696 38.1142 59.5766 38.1142 57.4601C35.9977 57.4601 33.8783 57.4601 31.7618 57.4601C31.7618 55.3407 31.7618 53.2242 31.7618 51.1077C29.6453 51.1077 27.5259 51.1077 25.4094 51.1077C25.4094 44.6601 25.4094 38.2095 25.4094 31.7619C27.5259 31.7619 29.6453 31.7619 31.7618 31.7619C31.7618 29.6454 31.7618 27.526 31.7618 25.4095C33.8783 25.4095 35.9977 25.4095 38.1142 25.4095C38.1142 23.293 38.1113 21.1736 38.1142 19.0571ZM38.1142 31.7619C38.1142 33.9765 38.1142 36.1883 38.1142 38.403C40.3288 38.403 42.5406 38.403 44.7553 38.403C44.7553 36.1883 44.7553 33.9765 44.7553 31.7619C42.5406 31.7619 40.3288 31.7619 38.1142 31.7619ZM63.8124 31.7619C63.8124 33.9765 63.8124 36.1883 63.8124 38.403C65.9289 38.403 68.0482 38.403 70.1647 38.403C70.1647 36.1883 70.1647 33.9765 70.1647 31.7619C68.0482 31.7619 65.9289 31.7619 63.8124 31.7619ZM51.1076 51.1077C51.1076 53.2242 51.1076 55.3407 51.1076 57.4601C55.3435 57.4601 59.5765 57.4601 63.8124 57.4601C63.8124 55.3436 63.8124 53.2242 63.8124 51.1077C59.5765 51.1077 55.3435 51.1077 51.1076 51.1077Z" fill="#00CB00"/>
</svg>
